<?xml version="1.0" encoding="UTF-8" standalone="no"?>
<!-- Created with Inkscape (http://www.inkscape.org/) -->

<svg
   xmlns:dc="http://purl.org/dc/elements/1.1/"
   xmlns:cc="http://creativecommons.org/ns#"
   xmlns:rdf="http://www.w3.org/1999/02/22-rdf-syntax-ns#"
   xmlns:svg="http://www.w3.org/2000/svg"
   xmlns="http://www.w3.org/2000/svg"
   xmlns:sodipodi="http://sodipodi.sourceforge.net/DTD/sodipodi-0.dtd"
   xmlns:inkscape="http://www.inkscape.org/namespaces/inkscape"
   width="3200"
   height="800"
   id="svg2"
   version="1.1"
   inkscape:version="0.48.0 r9654"
   sodipodi:docname="charlie 2.svg">
  <sodipodi:namedview
     id="base"
     pagecolor="#ffffff"
     bordercolor="#666666"
     borderopacity="1.0"
     inkscape:pageopacity="0.0"
     inkscape:pageshadow="2"
     inkscape:zoom="0.2065625"
     inkscape:cx="41.149777"
     inkscape:cy="400"
     inkscape:document-units="px"
     inkscape:current-layer="layer1"
     showgrid="false"
     inkscape:window-width="1253"
     inkscape:window-height="675"
     inkscape:window-x="0"
     inkscape:window-y="0"
     inkscape:window-maximized="0" />
  <defs
     id="defs4">
    <clipPath
       clipPathUnits="userSpaceOnUse"
       id="clipPath52">
      <path
         d="M 0,800 3200,800 3200,0 0,0 0,800 z"
         id="path54" />
    </clipPath>
    <clipPath
       clipPathUnits="userSpaceOnUse"
       id="clipPath42">
      <path
         d="M 0,800 0,0 3200,0 3200,800 0,800 z"
         id="path44" />
    </clipPath>
    <clipPath
       clipPathUnits="userSpaceOnUse"
       id="clipPath152">
      <path
         d="M 0,800 3200,800 3200,0 0,0 0,800 z"
         id="path154" />
    </clipPath>
    <clipPath
       clipPathUnits="userSpaceOnUse"
       id="clipPath142">
      <path
         d="M 0,800 0,0 3200,0 3200,800 0,800 z"
         id="path144" />
    </clipPath>
    <clipPath
       clipPathUnits="userSpaceOnUse"
       id="clipPath2360">
      <path
         d="M 0,800 3200,800 3200,0 0,0 0,800 z"
         id="path2362" />
    </clipPath>
    <clipPath
       clipPathUnits="userSpaceOnUse"
       id="clipPath2350">
      <path
         d="M 0,800 0,0 3200,0 3200,800 0,800 z"
         id="path2352" />
    </clipPath>
  </defs>
  <metadata
     id="metadata7">
    <rdf:RDF>
      <cc:Work
         rdf:about="">
        <dc:format>image/svg+xml</dc:format>
        <dc:type
           rdf:resource="http://purl.org/dc/dcmitype/StillImage" />
        <dc:title />
      </cc:Work>
    </rdf:RDF>
  </metadata>
  <g
     transform="translate(0,-252.36218)"
     id="layer1"
     inkscape:groupmode="layer"
     inkscape:label="Layer 1">
    <g
       id="g2342"
       inkscape:label="charlie 2"
       transform="matrix(0.875,0,0,-0.875,0,1016.3622)">
      <g
         id="g2344" />
      <g
         id="g2346">
        <g
           id="g2348"
           clip-path="url(#clipPath2350)">
          <g
             id="g2354">
            <g
               id="g2358"
               clip-path="url(#clipPath2360)">
              <path
                 inkscape:connector-curvature="0"
                 d="m 1988.74,166.33 62.51,-79.83 -528.84,288.06 273.97,-145.21 -119.03,18.39 239.16,203.9 -190.72,-380.69 51.97,498.61 -206.98,-234.15 50.42,134.18 134.21,-316.68 58.5,-138.43 18.54,596.49 -4.31,-261.11 147.75,-134.12 -75.7,-83.27"
                 style="fill:#000000;fill-opacity:0.68235019;fill-rule:nonzero;stroke:none"
                 id="path2364" />
              <path
                 inkscape:connector-curvature="0"
                 d="m 1988.74,166.33 62.51,-79.83 -528.84,288.06 273.97,-145.21 -119.03,18.39 239.16,203.9 -190.72,-380.69 51.97,498.61 -206.98,-234.15 50.42,134.18 134.21,-316.68 58.5,-138.43 18.54,596.49 -4.31,-261.11 147.75,-134.12 -75.7,-83.27"
                 style="fill:none;stroke:#000000;stroke-width:1;stroke-linecap:square;stroke-linejoin:miter;stroke-miterlimit:10;stroke-opacity:1;stroke-dasharray:none"
                 id="path2366" />
              <path
                 inkscape:connector-curvature="0"
                 d="m 1967.34,298.53 -357,-108.23 12.87,-209.85 68.56,403.8 232.88,-26.81 -156.15,-252.72 -137.97,350.68 7.24,-62.09 71.98,-64.83 108.01,-30.88 -278.07,-122.13 147.1,15.23 -32.5,32.57 98.16,-23.29 60.57,136.39 10.99,-264.56"
                 style="fill:#000000;fill-opacity:0.68235019;fill-rule:nonzero;stroke:none"
                 id="path2368" />
              <path
                 inkscape:connector-curvature="0"
                 d="m 1967.34,298.53 -357,-108.23 12.87,-209.85 68.56,403.8 232.88,-26.81 -156.15,-252.72 -137.97,350.68 7.24,-62.09 71.98,-64.83 108.01,-30.88 -278.07,-122.13 147.1,15.23 -32.5,32.57 98.16,-23.29 60.57,136.39 10.99,-264.56"
                 style="fill:none;stroke:#000000;stroke-width:1;stroke-linecap:square;stroke-linejoin:miter;stroke-miterlimit:10;stroke-opacity:1;stroke-dasharray:none"
                 id="path2370" />
              <path
                 inkscape:connector-curvature="0"
                 d="m 1639.6,184.54 -123.95,-211.89 -149.44,369.83 325.68,-137.47 126.8,188.84 -323.35,-37.26 -124.5,164.42 134.24,-267.55 -16.91,-81.74 179.09,111.84 -80.31,-8.13 -173.54,-218.1 357.25,243.7 L 1651.1,36.55 1660.05,322.8 1531.3,132.49"
                 style="fill:#000000;fill-opacity:0.68235019;fill-rule:nonzero;stroke:none"
                 id="path2372" />
              <path
                 inkscape:connector-curvature="0"
                 d="m 1639.6,184.54 -123.95,-211.89 -149.44,369.83 325.68,-137.47 126.8,188.84 -323.35,-37.26 -124.5,164.42 134.24,-267.55 -16.91,-81.74 179.09,111.84 -80.31,-8.13 -173.54,-218.1 357.25,243.7 L 1651.1,36.55 1660.05,322.8 1531.3,132.49"
                 style="fill:none;stroke:#000000;stroke-width:1;stroke-linecap:square;stroke-linejoin:miter;stroke-miterlimit:10;stroke-opacity:1;stroke-dasharray:none"
                 id="path2374" />
              <path
                 inkscape:connector-curvature="0"
                 d="m 1316.63,-16.23 83.78,129.08 7.37,185.25 33.97,36.51 62.9,-66.92 63.94,-92.95 -204.47,231.47 372.48,-94.13 57.71,-70.43 -271.19,-117.75 -204.2,274.3 -157.8,-228.11 474.65,-103.77 -154.72,30.29 6.25,66.36 -403.18,228.11"
                 style="fill:#000000;fill-opacity:0.68235019;fill-rule:nonzero;stroke:none"
                 id="path2376" />
              <path
                 inkscape:connector-curvature="0"
                 d="m 1316.63,-16.23 83.78,129.08 7.37,185.25 33.97,36.51 62.9,-66.92 63.94,-92.95 -204.47,231.47 372.48,-94.13 57.71,-70.43 -271.19,-117.75 -204.2,274.3 -157.8,-228.11 474.65,-103.77 -154.72,30.29 6.25,66.36 -403.18,228.11"
                 style="fill:none;stroke:#000000;stroke-width:1;stroke-linecap:square;stroke-linejoin:miter;stroke-miterlimit:10;stroke-opacity:1;stroke-dasharray:none"
                 id="path2378" />
              <path
                 inkscape:connector-curvature="0"
                 d="m 1183.82,173.72 -38.3,240.59 372.42,-47.1 134.96,-11.74 -175.15,44.53 -203.91,-88.7 86.63,67.47 340.91,155.21 -279,-3.12 -109.84,-264.45 266.51,391.06 -335.92,65.96 348.86,-666.12 -370.14,279.6 30.37,47.03 98.26,-153.87"
                 style="fill:#000000;fill-opacity:0.68235019;fill-rule:nonzero;stroke:none"
                 id="path2380" />
              <path
                 inkscape:connector-curvature="0"
                 d="m 1183.82,173.72 -38.3,240.59 372.42,-47.1 134.96,-11.74 -175.15,44.53 -203.91,-88.7 86.63,67.47 340.91,155.21 -279,-3.12 -109.84,-264.45 266.51,391.06 -335.92,65.96 348.86,-666.12 -370.14,279.6 30.37,47.03 98.26,-153.87"
                 style="fill:none;stroke:#000000;stroke-width:1;stroke-linecap:square;stroke-linejoin:miter;stroke-miterlimit:10;stroke-opacity:1;stroke-dasharray:none"
                 id="path2382" />
              <path
                 inkscape:connector-curvature="0"
                 d="m 1102.66,254.97 54.6,448.19 295.43,27.68 44.1,-345.38 88.59,-199.93 -68.58,446.61 246.5,20.89 -396.92,-275.84 158.44,162.75 -227.73,-296.82 106.07,259.22 242.29,112.29 -137.53,-74.96 -277.88,74.66 193.88,-43.95 37.17,-72.98"
                 style="fill:#000000;fill-opacity:0.68235019;fill-rule:nonzero;stroke:none"
                 id="path2384" />
              <path
                 inkscape:connector-curvature="0"
                 d="m 1102.66,254.97 54.6,448.19 295.43,27.68 44.1,-345.38 88.59,-199.93 -68.58,446.61 246.5,20.89 -396.92,-275.84 158.44,162.75 -227.73,-296.82 106.07,259.22 242.29,112.29 -137.53,-74.96 -277.88,74.66 193.88,-43.95 37.17,-72.98"
                 style="fill:none;stroke:#000000;stroke-width:1;stroke-linecap:square;stroke-linejoin:miter;stroke-miterlimit:10;stroke-opacity:1;stroke-dasharray:none"
                 id="path2386" />
              <path
                 inkscape:connector-curvature="0"
                 d="m 1356.64,694.64 161.7,106.81 9.54,-30.25 -13.33,-276 -130.81,29.11 121.26,153.91 228.87,7.79 2.99,-223.58 -305.73,-145.98 262.18,332.05 -135.34,43.05 113.27,-126.27 -68.18,92.9 -145.46,118.52 85.87,-77.23 -164.04,-118.93"
                 style="fill:#000000;fill-opacity:0.68235019;fill-rule:nonzero;stroke:none"
                 id="path2388" />
              <path
                 inkscape:connector-curvature="0"
                 d="m 1356.64,694.64 161.7,106.81 9.54,-30.25 -13.33,-276 -130.81,29.11 121.26,153.91 228.87,7.79 2.99,-223.58 -305.73,-145.98 262.18,332.05 -135.34,43.05 113.27,-126.27 -68.18,92.9 -145.46,118.52 85.87,-77.23 -164.04,-118.93"
                 style="fill:none;stroke:#000000;stroke-width:1;stroke-linecap:square;stroke-linejoin:miter;stroke-miterlimit:10;stroke-opacity:1;stroke-dasharray:none"
                 id="path2390" />
              <path
                 inkscape:connector-curvature="0"
                 d="m 1436.38,612.7 242.98,198 -34.62,-229.8 0.41,-141.75 -205.45,-5.46 348.36,105.02 -222.38,-94.41 91.7,-46.54 -13.89,163.36 -71.51,-121.71 -38.53,142.86 247.33,141.53 -475.15,-319.11 315.82,251.82 193.06,51.02 -130.37,75.34"
                 style="fill:#000000;fill-opacity:0.68235019;fill-rule:nonzero;stroke:none"
                 id="path2392" />
              <path
                 inkscape:connector-curvature="0"
                 d="m 1436.38,612.7 242.98,198 -34.62,-229.8 0.41,-141.75 -205.45,-5.46 348.36,105.02 -222.38,-94.41 91.7,-46.54 -13.89,163.36 -71.51,-121.71 -38.53,142.86 247.33,141.53 -475.15,-319.11 315.82,251.82 193.06,51.02 -130.37,75.34"
                 style="fill:none;stroke:#000000;stroke-width:1;stroke-linecap:square;stroke-linejoin:miter;stroke-miterlimit:10;stroke-opacity:1;stroke-dasharray:none"
                 id="path2394" />
              <path
                 inkscape:connector-curvature="0"
                 d="m 1857.01,769.07 76.61,-323.04 -260.69,-170.3 187.12,252.46 -22.99,101.45 168.25,-266.08 -169.04,-52.42 -461.02,-65.63 155.33,306.74 80.95,-183.63 21.13,-69.41 164.22,-67.52 -241.98,587.81 354.38,-30.04 -11.74,-429.43 -90.8,62.82"
                 style="fill:#000000;fill-opacity:0.68235019;fill-rule:nonzero;stroke:none"
                 id="path2396" />
              <path
                 inkscape:connector-curvature="0"
                 d="m 1857.01,769.07 76.61,-323.04 -260.69,-170.3 187.12,252.46 -22.99,101.45 168.25,-266.08 -169.04,-52.42 -461.02,-65.63 155.33,306.74 80.95,-183.63 21.13,-69.41 164.22,-67.52 -241.98,587.81 354.38,-30.04 -11.74,-429.43 -90.8,62.82"
                 style="fill:none;stroke:#000000;stroke-width:1;stroke-linecap:square;stroke-linejoin:miter;stroke-miterlimit:10;stroke-opacity:1;stroke-dasharray:none"
                 id="path2398" />
              <path
                 inkscape:connector-curvature="0"
                 d="m 1930.89,610.36 157.8,-283.77 -154.06,111.51 -277.21,-125.6 -27.78,445.46 24.19,-167.81 173.98,-123.91 -192.61,171.31 69.61,-95.05 -153.64,-57.71 283.15,-188.3 -126.92,120.07 102.81,337.97 -89.66,-233.82 171.79,-268.86 229.69,133.56"
                 style="fill:#000000;fill-opacity:0.68235019;fill-rule:nonzero;stroke:none"
                 id="path2400" />
              <path
                 inkscape:connector-curvature="0"
                 d="m 1930.89,610.36 157.8,-283.77 -154.06,111.51 -277.21,-125.6 -27.78,445.46 24.19,-167.81 173.98,-123.91 -192.61,171.31 69.61,-95.05 -153.64,-57.71 283.15,-188.3 -126.92,120.07 102.81,337.97 -89.66,-233.82 171.79,-268.86 229.69,133.56"
                 style="fill:none;stroke:#000000;stroke-width:1;stroke-linecap:square;stroke-linejoin:miter;stroke-miterlimit:10;stroke-opacity:1;stroke-dasharray:none"
                 id="path2402" />
              <path
                 inkscape:connector-curvature="0"
                 d="M 557.45,200.89 844.82,413.77 819.19,354.78 661.25,299.11 471.86,109.71 723.45,414.08 894.35,-11.99 543.15,-50.71 424.62,-33.68 828.8,248.91 690.1,225.8 846.11,369.33 485.59,448.75 592.68,161.44 l 98.84,58 229.72,103.74"
                 style="fill:#000000;fill-opacity:0.68235019;fill-rule:nonzero;stroke:none"
                 id="path2404" />
              <path
                 inkscape:connector-curvature="0"
                 d="M 557.45,200.89 844.82,413.77 819.19,354.78 661.25,299.11 471.86,109.71 723.45,414.08 894.35,-11.99 543.15,-50.71 424.62,-33.68 828.8,248.91 690.1,225.8 846.11,369.33 485.59,448.75 592.68,161.44 l 98.84,58 229.72,103.74"
                 style="fill:none;stroke:#000000;stroke-width:1;stroke-linecap:square;stroke-linejoin:miter;stroke-miterlimit:10;stroke-opacity:1;stroke-dasharray:none"
                 id="path2406" />
              <path
                 inkscape:connector-curvature="0"
                 d="M 482.65,412.25 630.94,291.1 606.54,-147.77 449.16,355.77 361.17,331.49 767.88,173.72 520.32,-38.47 365.04,216.25 347.74,230.12 447.13,340.31 321.06,146.39 705.98,-125.96 488.17,442.47 516.37,166.87 594.16,2.95 586.52,206.41"
                 style="fill:#000000;fill-opacity:0.68235019;fill-rule:nonzero;stroke:none"
                 id="path2408" />
              <path
                 inkscape:connector-curvature="0"
                 d="M 482.65,412.25 630.94,291.1 606.54,-147.77 449.16,355.77 361.17,331.49 767.88,173.72 520.32,-38.47 365.04,216.25 347.74,230.12 447.13,340.31 321.06,146.39 705.98,-125.96 488.17,442.47 516.37,166.87 594.16,2.95 586.52,206.41"
                 style="fill:none;stroke:#000000;stroke-width:1;stroke-linecap:square;stroke-linejoin:miter;stroke-miterlimit:10;stroke-opacity:1;stroke-dasharray:none"
                 id="path2410" />
              <path
                 inkscape:connector-curvature="0"
                 d="M 460.57,169.02 695.55,36.55 505.54,123.64 314.53,226.56 570.36,191.64 350.17,159.01 129.5,162.12 235.64,178.14 362.57,453.79 442.17,311.83 172.65,302.69 379.36,59.13 458.5,451.53 316.97,260.23 469.72,76.53 776.01,-53.03"
                 style="fill:#000000;fill-opacity:0.68235019;fill-rule:nonzero;stroke:none"
                 id="path2412" />
              <path
                 inkscape:connector-curvature="0"
                 d="M 460.57,169.02 695.55,36.55 505.54,123.64 314.53,226.56 570.36,191.64 350.17,159.01 129.5,162.12 235.64,178.14 362.57,453.79 442.17,311.83 172.65,302.69 379.36,59.13 458.5,451.53 316.97,260.23 469.72,76.53 776.01,-53.03"
                 style="fill:none;stroke:#000000;stroke-width:1;stroke-linecap:square;stroke-linejoin:miter;stroke-miterlimit:10;stroke-opacity:1;stroke-dasharray:none"
                 id="path2414" />
              <path
                 inkscape:connector-curvature="0"
                 d="M 462.34,447.63 311.77,-47.52 231.23,106.66 260.57,581.43 527.21,378.89 494.63,309.18 -2.91,392.88 151.39,456.22 367.46,353.58 416.62,544.7 368.8,147.74 34.1,36.89 614.2,369.97 580.27,339.28 176.53,39.51 468.32,-18.5"
                 style="fill:#000000;fill-opacity:0.68235019;fill-rule:nonzero;stroke:none"
                 id="path2416" />
              <path
                 inkscape:connector-curvature="0"
                 d="M 462.34,447.63 311.77,-47.52 231.23,106.66 260.57,581.43 527.21,378.89 494.63,309.18 -2.91,392.88 151.39,456.22 367.46,353.58 416.62,544.7 368.8,147.74 34.1,36.89 614.2,369.97 580.27,339.28 176.53,39.51 468.32,-18.5"
                 style="fill:none;stroke:#000000;stroke-width:1;stroke-linecap:square;stroke-linejoin:miter;stroke-miterlimit:10;stroke-opacity:1;stroke-dasharray:none"
                 id="path2418" />
              <path
                 inkscape:connector-curvature="0"
                 d="M 376.52,276.48 76.92,234.74 46.34,261.41 431.63,616.25 290.4,392.55 273.82,355.98 154.67,576.7 513.21,795.41 352.06,597.68 259.32,327.88 226.84,697.35 26.61,517.31 l 339.25,-81.1 44.63,10.14 -303.28,-81.18 79,-245.28"
                 style="fill:#000000;fill-opacity:0.68235019;fill-rule:nonzero;stroke:none"
                 id="path2420" />
              <path
                 inkscape:connector-curvature="0"
                 d="M 376.52,276.48 76.92,234.74 46.34,261.41 431.63,616.25 290.4,392.55 273.82,355.98 154.67,576.7 513.21,795.41 352.06,597.68 259.32,327.88 226.84,697.35 26.61,517.31 l 339.25,-81.1 44.63,10.14 -303.28,-81.18 79,-245.28"
                 style="fill:none;stroke:#000000;stroke-width:1;stroke-linecap:square;stroke-linejoin:miter;stroke-miterlimit:10;stroke-opacity:1;stroke-dasharray:none"
                 id="path2422" />
              <path
                 inkscape:connector-curvature="0"
                 d="M 451.29,639.74 317.01,398.87 161.13,758.3 379.79,705.28 609.02,554.95 238.41,686.41 l 0.99,110.38 355.01,28.6 -110.69,31.47 -200.78,-281.2 -70.21,16.83 -8.37,-6.99 304.22,111.97 -3.47,-373.75 -248.03,385.22 -180.93,-60.4"
                 style="fill:#000000;fill-opacity:0.68235019;fill-rule:nonzero;stroke:none"
                 id="path2424" />
              <path
                 inkscape:connector-curvature="0"
                 d="M 451.29,639.74 317.01,398.87 161.13,758.3 379.79,705.28 609.02,554.95 238.41,686.41 l 0.99,110.38 355.01,28.6 -110.69,31.47 -200.78,-281.2 -70.21,16.83 -8.37,-6.99 304.22,111.97 -3.47,-373.75 -248.03,385.22 -180.93,-60.4"
                 style="fill:none;stroke:#000000;stroke-width:1;stroke-linecap:square;stroke-linejoin:miter;stroke-miterlimit:10;stroke-opacity:1;stroke-dasharray:none"
                 id="path2426" />
              <path
                 inkscape:connector-curvature="0"
                 d="M 597.08,378.21 435.22,696.57 254.6,820.72 529.18,791.16 597.01,591.33 553.49,614.35 715.05,822.36 872.85,713.62 898.12,658.97 647.42,618.6 692.06,799.03 577.74,625.89 532.37,369.69 514.11,533.93 238.94,617.54 180,431.91"
                 style="fill:#000000;fill-opacity:0.68235019;fill-rule:nonzero;stroke:none"
                 id="path2428" />
              <path
                 inkscape:connector-curvature="0"
                 d="M 597.08,378.21 435.22,696.57 254.6,820.72 529.18,791.16 597.01,591.33 553.49,614.35 715.05,822.36 872.85,713.62 898.12,658.97 647.42,618.6 692.06,799.03 577.74,625.89 532.37,369.69 514.11,533.93 238.94,617.54 180,431.91"
                 style="fill:none;stroke:#000000;stroke-width:1;stroke-linecap:square;stroke-linejoin:miter;stroke-miterlimit:10;stroke-opacity:1;stroke-dasharray:none"
                 id="path2430" />
              <path
                 inkscape:connector-curvature="0"
                 d="M 631.64,723.64 459.29,523.31 784.08,874.26 844.23,743.91 508.81,597.19 500.47,709.08 888.09,770.87 901.69,453.39 772.59,542.5 899.34,707.55 804.19,876.03 868.17,564.86 617.82,416.85 669.65,565.6 663.5,551.02 409.44,740.96"
                 style="fill:#000000;fill-opacity:0.68235019;fill-rule:nonzero;stroke:none"
                 id="path2432" />
              <path
                 inkscape:connector-curvature="0"
                 d="M 631.64,723.64 459.29,523.31 784.08,874.26 844.23,743.91 508.81,597.19 500.47,709.08 888.09,770.87 901.69,453.39 772.59,542.5 899.34,707.55 804.19,876.03 868.17,564.86 617.82,416.85 669.65,565.6 663.5,551.02 409.44,740.96"
                 style="fill:none;stroke:#000000;stroke-width:1;stroke-linecap:square;stroke-linejoin:miter;stroke-miterlimit:10;stroke-opacity:1;stroke-dasharray:none"
                 id="path2434" />
              <path
                 inkscape:connector-curvature="0"
                 d="m 635.29,574.45 -6.2,-111.81 41.3,-43.88 L 855.57,603.4 460.58,231.05 590.71,436.72 782.95,401.14 1029.38,279.28 832.51,177.51 868.9,240.93 779.44,530.76 1007.93,492.24 825.32,195.77 613.85,576.52 891.48,713.66 640.65,654.45"
                 style="fill:#000000;fill-opacity:0.68235019;fill-rule:nonzero;stroke:none"
                 id="path2436" />
              <path
                 inkscape:connector-curvature="0"
                 d="m 635.29,574.45 -6.2,-111.81 41.3,-43.88 L 855.57,603.4 460.58,231.05 590.71,436.72 782.95,401.14 1029.38,279.28 832.51,177.51 868.9,240.93 779.44,530.76 1007.93,492.24 825.32,195.77 613.85,576.52 891.48,713.66 640.65,654.45"
                 style="fill:none;stroke:#000000;stroke-width:1;stroke-linecap:square;stroke-linejoin:miter;stroke-miterlimit:10;stroke-opacity:1;stroke-dasharray:none"
                 id="path2438" />
              <path
                 inkscape:connector-curvature="0"
                 d="m 581.57,397.8 101.8,72.82 232.61,-118.04 -296.95,-64.38 -118.2,4.61 127.35,-31.91 411.85,101 L 886.53,132.38 544.77,112.39 835.84,450.48 1031.18,217.33 916.7,326.86 801.68,230.44 l 28.31,300.65 -191.2,69.08 285.22,63.97"
                 style="fill:#000000;fill-opacity:0.68235019;fill-rule:nonzero;stroke:none"
                 id="path2440" />
              <path
                 inkscape:connector-curvature="0"
                 d="m 581.57,397.8 101.8,72.82 232.61,-118.04 -296.95,-64.38 -118.2,4.61 127.35,-31.91 411.85,101 L 886.53,132.38 544.77,112.39 835.84,450.48 1031.18,217.33 916.7,326.86 801.68,230.44 l 28.31,300.65 -191.2,69.08 285.22,63.97"
                 style="fill:none;stroke:#000000;stroke-width:1;stroke-linecap:square;stroke-linejoin:miter;stroke-miterlimit:10;stroke-opacity:1;stroke-dasharray:none"
                 id="path2442" />
              <path
                 inkscape:connector-curvature="0"
                 d="m 2619.33,196.95 429.24,238.85 -85.19,-253.87 -310.99,-158.61 -157.23,427.22 421.8,-152.36 39.89,-305.65 -367.49,270.84 -65.71,-180.94 149.47,235.47 381.8,-366.49 -132.5,239.96 -373.51,111.42 432.01,172.25 1.57,-386.44 117.31,247.17"
                 style="fill:#000000;fill-opacity:0.68235019;fill-rule:nonzero;stroke:none"
                 id="path2444" />
              <path
                 inkscape:connector-curvature="0"
                 d="m 2619.33,196.95 429.24,238.85 -85.19,-253.87 -310.99,-158.61 -157.23,427.22 421.8,-152.36 39.89,-305.65 -367.49,270.84 -65.71,-180.94 149.47,235.47 381.8,-366.49 -132.5,239.96 -373.51,111.42 432.01,172.25 1.57,-386.44 117.31,247.17"
                 style="fill:none;stroke:#000000;stroke-width:1;stroke-linecap:square;stroke-linejoin:miter;stroke-miterlimit:10;stroke-opacity:1;stroke-dasharray:none"
                 id="path2446" />
              <path
                 inkscape:connector-curvature="0"
                 d="m 2794.47,281.58 173.19,-76.7 -247.34,-97.51 -249.97,139.02 225.84,-54.65 126.04,-83.06 -292.88,-102.11 9.53,65.15 81.65,58.79 -119.75,159.53 162.84,-194.37 113.19,-255.51 -146.74,511.87 -30.89,-66.72 41.19,-280.82 41.57,7.14"
                 style="fill:#000000;fill-opacity:0.68235019;fill-rule:nonzero;stroke:none"
                 id="path2448" />
              <path
                 inkscape:connector-curvature="0"
                 d="m 2794.47,281.58 173.19,-76.7 -247.34,-97.51 -249.97,139.02 225.84,-54.65 126.04,-83.06 -292.88,-102.11 9.53,65.15 81.65,58.79 -119.75,159.53 162.84,-194.37 113.19,-255.51 -146.74,511.87 -30.89,-66.72 41.19,-280.82 41.57,7.14"
                 style="fill:none;stroke:#000000;stroke-width:1;stroke-linecap:square;stroke-linejoin:miter;stroke-miterlimit:10;stroke-opacity:1;stroke-dasharray:none"
                 id="path2450" />
              <path
                 inkscape:connector-curvature="0"
                 d="m 2525.11,268.7 8.91,-355.31 126.41,182.41 -48.82,73.02 -207.43,338.4 1.48,-461.54 164.39,40.89 -16.68,95.22 -294.5,206.89 412.99,-315.56 -123.99,-104.36 -57.45,96.2 -24.44,377.46 312.65,-295.93 -45.89,-62.56 -166,-177.56"
                 style="fill:#000000;fill-opacity:0.68235019;fill-rule:nonzero;stroke:none"
                 id="path2452" />
              <path
                 inkscape:connector-curvature="0"
                 d="m 2525.11,268.7 8.91,-355.31 126.41,182.41 -48.82,73.02 -207.43,338.4 1.48,-461.54 164.39,40.89 -16.68,95.22 -294.5,206.89 412.99,-315.56 -123.99,-104.36 -57.45,96.2 -24.44,377.46 312.65,-295.93 -45.89,-62.56 -166,-177.56"
                 style="fill:none;stroke:#000000;stroke-width:1;stroke-linecap:square;stroke-linejoin:miter;stroke-miterlimit:10;stroke-opacity:1;stroke-dasharray:none"
                 id="path2454" />
              <path
                 inkscape:connector-curvature="0"
                 d="m 2598.71,478.03 62.54,-262.59 -384.83,-105.9 255.83,296.06 -130.1,79.89 15,-57.08 -65.97,-292.13 -71.39,135.32 184.33,84.87 72.68,139.14 -175.79,-384.24 -8.74,154.2 53.99,-47.82 77.67,292.06 -71.2,-341.94 184.89,181.97"
                 style="fill:#000000;fill-opacity:0.68235019;fill-rule:nonzero;stroke:none"
                 id="path2456" />
              <path
                 inkscape:connector-curvature="0"
                 d="m 2598.71,478.03 62.54,-262.59 -384.83,-105.9 255.83,296.06 -130.1,79.89 15,-57.08 -65.97,-292.13 -71.39,135.32 184.33,84.87 72.68,139.14 -175.79,-384.24 -8.74,154.2 53.99,-47.82 77.67,292.06 -71.2,-341.94 184.89,181.97"
                 style="fill:none;stroke:#000000;stroke-width:1;stroke-linecap:square;stroke-linejoin:miter;stroke-miterlimit:10;stroke-opacity:1;stroke-dasharray:none"
                 id="path2458" />
              <path
                 inkscape:connector-curvature="0"
                 d="m 2521.71,317.22 -44.02,24.4 -273.47,-90.29 389.89,271.22 155.42,-56.97 -200.1,-258.03 -376.51,409.66 205.26,-61.48 48.43,29.55 44.11,119.37 10.65,20.23 -20.86,-212.5 -53.44,-174.24 285.68,-48.11 -365.41,183.13 51.4,-199.07"
                 style="fill:#000000;fill-opacity:0.68235019;fill-rule:nonzero;stroke:none"
                 id="path2460" />
              <path
                 inkscape:connector-curvature="0"
                 d="m 2521.71,317.22 -44.02,24.4 -273.47,-90.29 389.89,271.22 155.42,-56.97 -200.1,-258.03 -376.51,409.66 205.26,-61.48 48.43,29.55 44.11,119.37 10.65,20.23 -20.86,-212.5 -53.44,-174.24 285.68,-48.11 -365.41,183.13 51.4,-199.07"
                 style="fill:none;stroke:#000000;stroke-width:1;stroke-linecap:square;stroke-linejoin:miter;stroke-miterlimit:10;stroke-opacity:1;stroke-dasharray:none"
                 id="path2462" />
              <path
                 inkscape:connector-curvature="0"
                 d="m 2417.74,313.62 97.17,331.45 67.94,179.05 124.43,-175.3 -73.51,-135.32 -53.9,18.5 8.72,185.09 192.92,-42.57 -73.59,-153.47 -152.75,154.58 -123.72,178.16 -198.51,-241.94 533.68,-123.41 -160.06,-115.69 39.28,151.99 -171.33,79.88"
                 style="fill:#000000;fill-opacity:0.68235019;fill-rule:nonzero;stroke:none"
                 id="path2464" />
              <path
                 inkscape:connector-curvature="0"
                 d="m 2417.74,313.62 97.17,331.45 67.94,179.05 124.43,-175.3 -73.51,-135.32 -53.9,18.5 8.72,185.09 192.92,-42.57 -73.59,-153.47 -152.75,154.58 -123.72,178.16 -198.51,-241.94 533.68,-123.41 -160.06,-115.69 39.28,151.99 -171.33,79.88"
                 style="fill:none;stroke:#000000;stroke-width:1;stroke-linecap:square;stroke-linejoin:miter;stroke-miterlimit:10;stroke-opacity:1;stroke-dasharray:none"
                 id="path2466" />
              <path
                 inkscape:connector-curvature="0"
                 d="m 2538.26,303.14 61.99,178.98 183.41,151.68 -29.19,-142.94 74.25,-32.77 -449.86,274.36 126.83,-152.87 234.16,-24.63 3.66,259.74 -118.01,-107.5 123.47,90.23 -214.18,-54.7 356.81,-132.56 -265.7,-243.35 -175.36,121.93 -57.26,1.16"
                 style="fill:#000000;fill-opacity:0.68235019;fill-rule:nonzero;stroke:none"
                 id="path2468" />
              <path
                 inkscape:connector-curvature="0"
                 d="m 2538.26,303.14 61.99,178.98 183.41,151.68 -29.19,-142.94 74.25,-32.77 -449.86,274.36 126.83,-152.87 234.16,-24.63 3.66,259.74 -118.01,-107.5 123.47,90.23 -214.18,-54.7 356.81,-132.56 -265.7,-243.35 -175.36,121.93 -57.26,1.16"
                 style="fill:none;stroke:#000000;stroke-width:1;stroke-linecap:square;stroke-linejoin:miter;stroke-miterlimit:10;stroke-opacity:1;stroke-dasharray:none"
                 id="path2470" />
              <path
                 inkscape:connector-curvature="0"
                 d="m 2883.57,428.58 -103.43,143.15 147.71,22.63 -212.57,137.11 138.98,-81.09 13.38,-208.44 -49.67,68.64 241.21,-187.75 -23.1,200.9 -185.8,-134.59 -29.32,277.08 117.97,72.38 -270.08,-377.8 191.2,301.25 -286.85,76.57 -139.36,-232.75"
                 style="fill:#000000;fill-opacity:0.68235019;fill-rule:nonzero;stroke:none"
                 id="path2472" />
              <path
                 inkscape:connector-curvature="0"
                 d="m 2883.57,428.58 -103.43,143.15 147.71,22.63 -212.57,137.11 138.98,-81.09 13.38,-208.44 -49.67,68.64 241.21,-187.75 -23.1,200.9 -185.8,-134.59 -29.32,277.08 117.97,72.38 -270.08,-377.8 191.2,301.25 -286.85,76.57 -139.36,-232.75"
                 style="fill:none;stroke:#000000;stroke-width:1;stroke-linecap:square;stroke-linejoin:miter;stroke-miterlimit:10;stroke-opacity:1;stroke-dasharray:none"
                 id="path2474" />
              <path
                 inkscape:connector-curvature="0"
                 d="m 2934.14,367.38 -234.42,304.55 327.99,-111.91 -127.68,8.19 -82.43,-35.83 114.39,-175.11 148.71,121.97 -43.43,30.93 -159.35,-76.98 -121.67,-67.35 236.73,114.95 -143.35,20.69 -155.05,41.15 -115.74,93.82 144.34,-158.49 16.79,283.23"
                 style="fill:#000000;fill-opacity:0.68235019;fill-rule:nonzero;stroke:none"
                 id="path2476" />
              <path
                 inkscape:connector-curvature="0"
                 d="m 2934.14,367.38 -234.42,304.55 327.99,-111.91 -127.68,8.19 -82.43,-35.83 114.39,-175.11 148.71,121.97 -43.43,30.93 -159.35,-76.98 -121.67,-67.35 236.73,114.95 -143.35,20.69 -155.05,41.15 -115.74,93.82 144.34,-158.49 16.79,283.23"
                 style="fill:none;stroke:#000000;stroke-width:1;stroke-linecap:square;stroke-linejoin:miter;stroke-miterlimit:10;stroke-opacity:1;stroke-dasharray:none"
                 id="path2478" />
              <path
                 inkscape:connector-curvature="0"
                 d="m 2737.21,529.63 24.36,-61.47 307.15,-274.73 -31.88,-67.13 -177.02,297.1 241.02,-35.69 -236.14,-61.14 37.95,-262.13 -158.26,-46.07 105.87,219.53 186.93,-91.39 113.92,144.81 -210.15,-30.32 -257.18,236.46 200.79,-90.74 1.69,143.74"
                 style="fill:#000000;fill-opacity:0.68235019;fill-rule:nonzero;stroke:none"
                 id="path2480" />
              <path
                 inkscape:connector-curvature="0"
                 d="m 2737.21,529.63 24.36,-61.47 307.15,-274.73 -31.88,-67.13 -177.02,297.1 241.02,-35.69 -236.14,-61.14 37.95,-262.13 -158.26,-46.07 105.87,219.53 186.93,-91.39 113.92,144.81 -210.15,-30.32 -257.18,236.46 200.79,-90.74 1.69,143.74"
                 style="fill:none;stroke:#000000;stroke-width:1;stroke-linecap:square;stroke-linejoin:miter;stroke-miterlimit:10;stroke-opacity:1;stroke-dasharray:none"
                 id="path2482" />
            </g>
          </g>
        </g>
      </g>
    </g>
  </g>
  <eggbot
     id="eggbot15934"
     totaldeltay="0"
     totaldeltax="0"
     lastpathnc="0"
     lastpath="0"
     node="0"
     layer="0"
     serialport="/dev/cu.usbmodem411" />
</svg>
