<?xml version="1.0" encoding="UTF-8" standalone="no"?>
<!-- Created with Inkscape (http://www.inkscape.org/) -->

<svg
   xmlns:dc="http://purl.org/dc/elements/1.1/"
   xmlns:cc="http://creativecommons.org/ns#"
   xmlns:rdf="http://www.w3.org/1999/02/22-rdf-syntax-ns#"
   xmlns:svg="http://www.w3.org/2000/svg"
   xmlns="http://www.w3.org/2000/svg"
   xmlns:sodipodi="http://sodipodi.sourceforge.net/DTD/sodipodi-0.dtd"
   xmlns:inkscape="http://www.inkscape.org/namespaces/inkscape"
   width="3200"
   height="800"
   id="svg2"
   version="1.1"
   inkscape:version="0.48+devel r9994"
   sodipodi:docname="minecraft egg 4.svg">
  <sodipodi:namedview
     id="base"
     pagecolor="#ffffff"
     bordercolor="#666666"
     borderopacity="1.0"
     inkscape:pageopacity="0.0"
     inkscape:pageshadow="2"
     inkscape:zoom="0.2"
     inkscape:cx="1418.3127"
     inkscape:cy="473.29447"
     inkscape:document-units="px"
     inkscape:current-layer="layer3"
     showgrid="true"
     inkscape:window-width="1253"
     inkscape:window-height="675"
     inkscape:window-x="0"
     inkscape:window-y="0"
     inkscape:window-maximized="0"
     inkscape:snap-global="true">
    <inkscape:grid
       type="xygrid"
       id="grid209" />
  </sodipodi:namedview>
  <defs
     id="defs4">
    <clipPath
       id="clipPath52"
       clipPathUnits="userSpaceOnUse">
      <path
         id="path54"
         d="M 0,800 3200,800 3200,0 0,0 0,800 z" />
    </clipPath>
    <clipPath
       id="clipPath42"
       clipPathUnits="userSpaceOnUse">
      <path
         id="path44"
         d="M 0,800 0,0 3200,0 3200,800 0,800 z" />
    </clipPath>
  </defs>
  <metadata
     id="metadata7">
    <rdf:RDF>
      <cc:Work
         rdf:about="">
        <dc:format>image/svg+xml</dc:format>
        <dc:type
           rdf:resource="http://purl.org/dc/dcmitype/StillImage" />
        <dc:title></dc:title>
      </cc:Work>
    </rdf:RDF>
  </metadata>
  <g
     style="display:inline"
     inkscape:groupmode="layer"
     id="layer4"
     inkscape:label="3 pen">
    <g
       transform="matrix(1.3846154,0,0,0.83076924,-901.5385,45.35385)"
       id="g2676">
      <g
         transform="translate(-680,100)"
         id="g1431">
        <path
           style="fill:none;stroke:#000000;stroke-width:1px;stroke-linecap:butt;stroke-linejoin:miter;stroke-opacity:1"
           d="m 1520,500 0,40 160,0 0,-40 80,0 0,-80 40,0 0,-120 -40,0 0,-80 -40,0 0,-80 -80,0 0,-40 -40,0 0,40 40,0 0,40 40,0 0,240 -40,0 0,40 -40,0 0,40 z"
           id="path1388"
           inkscape:connector-curvature="0" />
        <path
           inkscape:connector-curvature="0"
           style="fill:none;stroke:#000000;stroke-width:1"
           d="m 1520.2319,500 0,40 m 1,0 0,-40 m 1,0 0,40 m 1,0 0,-40 m 1,0 0,40 m 1,0 0,-40 m 1,0 0,40 m 1,0 0,-40 m 1,0 0,40 m 1,0 0,-40 m 1,0 0,40 m 1,0 0,-40 m 1,0 0,40 m 1,0 0,-40 m 1,0 0,40 m 1,0 0,-40 m 1,0 0,40 m 1,0 0,-40 m 1,0 0,40 m 1,0 0,-40 m 1,0 0,40 m 1,0 0,-40 m 1,0 0,40 m 1,0 0,-40 m 1,0 0,40 m 1,0 0,-40 m 1,0 0,40 m 1,0 0,-40 m 1,0 0,40 m 1,0 0,-40 m 1,0 0,40 m 1,0 0,-40 m 1,0 0,40 m 1,0 0,-40 m 1,0 0,40 m 1,0 0,-40 m 1,0 0,40 m 1,0 0,-40 m 1,0 0,40 m 1,0 0,-40 m 1,0 0,40 m 1,0 0,-40 m 1,0 0,40 m 1,0 0,-40 m 1,0 0,40 m 1,0 0,-40 m 1,0 0,40 m 1,0 0,-40 m 1,0 0,40 m 1,0 0,-40 m 1,0 0,40 m 1,0 0,-40 m 1,0 0,40 m 1,0 0,-40 m 1,0 0,40 m 1,0 0,-40 m 1,0 0,40 m 1,0 0,-40 m 1,0 0,40 m 1,0 0,-40 m 1,0 0,40 m 1,0 0,-40 m 1,0 0,40 m 1,0 0,-40 m 1,0 0,40 m 1,0 0,-40 m 1,0 0,40 m 1,0 0,-40 m 1,0 0,40 m 1,0 0,-40 m 1,0 0,40 m 1,0 0,-40 m 1,0 0,40 m 1,0 0,-40 m 1,0 0,40 m 1,0 0,-40 m 1,0 0,40 m 1,0 0,-40 m 1,0 0,40 m 1,0 0,-40 m 1,-400 0,40 m 0,400 0,-80 m 1,-360 0,40 m 0,400 0,-80 m 1,-360 0,40 m 0,400 0,-80 m 1,-360 0,40 m 0,400 0,-80 m 1,-360 0,40 m 0,400 0,-80 m 1,-360 0,40 m 0,400 0,-80 m 1,-360 0,40 m 0,400 0,-80 m 1,-360 0,40 m 0,400 0,-80 m 1,-360 0,40 m 0,400 0,-80 m 1,-360 0,40 m 0,400 0,-80 m 1,-360 0,40 m 0,400 0,-80 m 1,-360 0,40 m 0,400 0,-80 m 1,-360 0,40 m 0,400 0,-80 m 1,-360 0,40 m 0,400 0,-80 m 1,-360 0,40 m 0,400 0,-80 m 1,-360 0,40 m 0,400 0,-80 m 1,-360 0,40 m 0,400 0,-80 m 1,-360 0,40 m 0,400 0,-80 m 1,-360 0,40 m 0,400 0,-80 m 1,-360 0,40 m 0,400 0,-80 m 1,-360 0,40 m 0,400 0,-80 m 1,-360 0,40 m 0,400 0,-80 m 1,-360 0,40 m 0,400 0,-80 m 1,-360 0,40 m 0,400 0,-80 m 1,-360 0,40 m 0,400 0,-80 m 1,-360 0,40 m 0,400 0,-80 m 1,-360 0,40 m 0,400 0,-80 m 1,-360 0,40 m 0,400 0,-80 m 1,-360 0,40 m 0,400 0,-80 m 1,-360 0,40 m 0,400 0,-80 m 1,-360 0,40 m 0,400 0,-80 m 1,-360 0,40 m 0,400 0,-80 m 1,-360 0,40 m 0,400 0,-80 m 1,-360 0,40 m 0,400 0,-80 m 1,-360 0,40 m 0,400 0,-80 m 1,-360 0,40 m 0,400 0,-80 m 1,-360 0,40 m 0,400 0,-80 m 1,-360 0,40 m 0,400 0,-80 m 1,-360 0,40 m 0,400 0,-80 m 1,-360 0,40 m 0,400 0,-80 m 1,-320 0,40 m 0,360 0,-120 m 1,-280 0,40 m 0,360 0,-120 m 1,-280 0,40 m 0,360 0,-120 m 1,-280 0,40 m 0,360 0,-120 m 1,-280 0,40 m 0,360 0,-120 m 1,-280 0,40 m 0,360 0,-120 m 1,-280 0,40 m 0,360 0,-120 m 1,-280 0,40 m 0,360 0,-120 m 1,-280 0,40 m 0,360 0,-120 m 1,-280 0,40 m 0,360 0,-120 m 1,-280 0,40 m 0,360 0,-120 m 1,-280 0,40 m 0,360 0,-120 m 1,-280 0,40 m 0,360 0,-120 m 1,-280 0,40 m 0,360 0,-120 m 1,-280 0,40 m 0,360 0,-120 m 1,-280 0,40 m 0,360 0,-120 m 1,-280 0,40 m 0,360 0,-120 m 1,-280 0,40 m 0,360 0,-120 m 1,-280 0,40 m 0,360 0,-120 m 1,-280 0,40 m 0,360 0,-120 m 1,-280 0,40 m 0,360 0,-120 m 1,-280 0,40 m 0,360 0,-120 m 1,-280 0,40 m 0,360 0,-120 m 1,-280 0,40 m 0,360 0,-120 m 1,-280 0,40 m 0,360 0,-120 m 1,-280 0,40 m 0,360 0,-120 m 1,-280 0,40 m 0,360 0,-120 m 1,-280 0,40 m 0,360 0,-120 m 1,-280 0,40 m 0,360 0,-120 m 1,-280 0,40 m 0,360 0,-120 m 1,-280 0,40 m 0,360 0,-120 m 1,-280 0,40 m 0,360 0,-120 m 1,-280 0,40 m 0,360 0,-120 m 1,-280 0,40 m 0,360 0,-120 m 1,-280 0,40 m 0,360 0,-120 m 1,-280 0,40 m 0,360 0,-120 m 1,-280 0,40 m 0,360 0,-120 m 1,-280 0,40 m 0,360 0,-120 m 1,-280 0,40 m 0,360 0,-120 m 1,-280 0,40 m 0,360 0,-120 m 1,-280 0,360 m 1,0 0,-360 m 1,0 0,360 m 1,0 0,-360 m 1,0 0,360 m 1,0 0,-360 m 1,0 0,360 m 1,0 0,-360 m 1,0 0,360 m 1,0 0,-360 m 1,0 0,360 m 1,0 0,-360 m 1,0 0,360 m 1,0 0,-360 m 1,0 0,360 m 1,0 0,-360 m 1,0 0,360 m 1,0 0,-360 m 1,0 0,360 m 1,0 0,-360 m 1,0 0,360 m 1,0 0,-360 m 1,0 0,360 m 1,0 0,-360 m 1,0 0,360 m 1,0 0,-360 m 1,0 0,360 m 1,0 0,-360 m 1,0 0,360 m 1,0 0,-360 m 1,0 0,360 m 1,0 0,-360 m 1,0 0,360 m 1,0 0,-360 m 1,0 0,360 m 1,0 0,-360 m 1,0 0,360 m 1,0 0,-360 m 1,0 0,360 m 1,0 0,-360 m 1,80 0,280 m 1,0 0,-280 m 1,0 0,280 m 1,0 0,-280 m 1,0 0,280 m 1,0 0,-280 m 1,0 0,280 m 1,0 0,-280 m 1,0 0,280 m 1,0 0,-280 m 1,0 0,280 m 1,0 0,-280 m 1,0 0,280 m 1,0 0,-280 m 1,0 0,280 m 1,0 0,-280 m 1,0 0,280 m 1,0 0,-280 m 1,0 0,280 m 1,0 0,-280 m 1,0 0,280 m 1,0 0,-280 m 1,0 0,280 m 1,0 0,-280 m 1,0 0,280 m 1,0 0,-280 m 1,0 0,280 m 1,0 0,-280 m 1,0 0,280 m 1,0 0,-280 m 1,0 0,280 m 1,0 0,-280 m 1,0 0,280 m 1,0 0,-280 m 1,0 0,280 m 1,0 0,-280 m 1,0 0,280 m 1,0 0,-280 m 1,0 0,280 m 1,0 0,-280 m 1,80 0,120 m 1,0 0,-120 m 1,0 0,120 m 1,0 0,-120 m 1,0 0,120 m 1,0 0,-120 m 1,0 0,120 m 1,0 0,-120 m 1,0 0,120 m 1,0 0,-120 m 1,0 0,120 m 1,0 0,-120 m 1,0 0,120 m 1,0 0,-120 m 1,0 0,120 m 1,0 0,-120 m 1,0 0,120 m 1,0 0,-120 m 1,0 0,120 m 1,0 0,-120 m 1,0 0,120 m 1,0 0,-120 m 1,0 0,120 m 1,0 0,-120 m 1,0 0,120 m 1,0 0,-120 m 1,0 0,120 m 1,0 0,-120 m 1,0 0,120 m 1,0 0,-120 m 1,0 0,120 m 1,0 0,-120 m 1,0 0,120 m 1,0 0,-120 m 1,0 0,120 m 1,0 0,-120 m 1,0 0,120 m 1,0 0,-120 m 1,0 0,120 m 1,0 0,-120"
           id="path1434" />
      </g>
      <g
         style="display:inline"
         id="g1645"
         transform="translate(-680,100)">
        <path
           inkscape:connector-curvature="0"
           id="path1560"
           d="m 1440,460 0,40 80,0 0,-40 z"
           style="fill:none;stroke:#000000;stroke-width:1px;stroke-linecap:butt;stroke-linejoin:miter;stroke-opacity:1" />
        <path
           id="path1648"
           d="m 1440.2786,460 0,40 m 1,0 0,-40 m 1,0 0,40 m 1,0 0,-40 m 1,0 0,40 m 1,0 0,-40 m 1,0 0,40 m 1,0 0,-40 m 1,0 0,40 m 1,0 0,-40 m 1,0 0,40 m 1,0 0,-40 m 1,0 0,40 m 1,0 0,-40 m 1,0 0,40 m 1,0 0,-40 m 1,0 0,40 m 1,0 0,-40 m 1,0 0,40 m 1,0 0,-40 m 1,0 0,40 m 1,0 0,-40 m 1,0 0,40 m 1,0 0,-40 m 1,0 0,40 m 1,0 0,-40 m 1,0 0,40 m 1,0 0,-40 m 1,0 0,40 m 1,0 0,-40 m 1,0 0,40 m 1,0 0,-40 m 1,0 0,40 m 1,0 0,-40 m 1,0 0,40 m 1,0 0,-40 m 1,0 0,40 m 1,0 0,-40 m 1,0 0,40 m 1,0 0,-40 m 1,0 0,40 m 1,0 0,-40 m 1,0 0,40 m 1,0 0,-40 m 1,0 0,40 m 1,0 0,-40 m 1,0 0,40 m 1,0 0,-40 m 1,0 0,40 m 1,0 0,-40 m 1,0 0,40 m 1,0 0,-40 m 1,0 0,40 m 1,0 0,-40 m 1,0 0,40 m 1,0 0,-40 m 1,0 0,40 m 1,0 0,-40 m 1,0 0,40 m 1,0 0,-40 m 1,0 0,40 m 1,0 0,-40 m 1,0 0,40 m 1,0 0,-40 m 1,0 0,40 m 1,0 0,-40 m 1,0 0,40 m 1,0 0,-40 m 1,0 0,40 m 1,0 0,-40 m 1,0 0,40 m 1,0 0,-40 m 1,0 0,40 m 1,0 0,-40 m 1,0 0,40 m 1,0 0,-40 m 1,0 0,40 m 1,0 0,-40 m 1,0 0,40 m 1,0 0,-40"
           style="fill:none;stroke:#000000;stroke-width:1"
           inkscape:connector-curvature="0" />
      </g>
      <g
         style="display:inline"
         transform="translate(-680,100)"
         id="g1826">
        <path
           style="fill:none;stroke:#000000;stroke-width:1px;stroke-linecap:butt;stroke-linejoin:miter;stroke-opacity:1"
           d="m 1400,380 0,40 40,0 0,-40 z"
           id="path1738"
           inkscape:connector-curvature="0" />
        <path
           inkscape:connector-curvature="0"
           style="fill:none;stroke:#000000;stroke-width:1"
           d="m 1400.7157,380 0,40 m 1,0 0,-40 m 1,0 0,40 m 1,0 0,-40 m 1,0 0,40 m 1,0 0,-40 m 1,0 0,40 m 1,0 0,-40 m 1,0 0,40 m 1,0 0,-40 m 1,0 0,40 m 1,0 0,-40 m 1,0 0,40 m 1,0 0,-40 m 1,0 0,40 m 1,0 0,-40 m 1,0 0,40 m 1,0 0,-40 m 1,0 0,40 m 1,0 0,-40 m 1,0 0,40 m 1,0 0,-40 m 1,0 0,40 m 1,0 0,-40 m 1,0 0,40 m 1,0 0,-40 m 1,0 0,40 m 1,0 0,-40 m 1,0 0,40 m 1,0 0,-40 m 1,0 0,40 m 1,0 0,-40 m 1,0 0,40 m 1,0 0,-40 m 1,0 0,40 m 1,0 0,-40 m 1,0 0,40 m 1,0 0,-40 m 1,0 0,40 m 1,0 0,-40"
           id="path1829" />
      </g>
    </g>
    <g
       id="g7136"
       transform="matrix(1.3846154,0,0,0.83076924,-186.5385,48.35385)">
      <g
         id="g7138"
         transform="translate(-680,100)">
        <path
           inkscape:connector-curvature="0"
           id="path7140"
           d="m 1520,500 0,40 160,0 0,-40 80,0 0,-80 40,0 0,-120 -40,0 0,-80 -40,0 0,-80 -80,0 0,-40 -40,0 0,40 40,0 0,40 40,0 0,240 -40,0 0,40 -40,0 0,40 z"
           style="fill:none;stroke:#000000;stroke-width:1px;stroke-linecap:butt;stroke-linejoin:miter;stroke-opacity:1" />
        <path
           id="path7142"
           d="m 1520.2319,500 0,40 m 1,0 0,-40 m 1,0 0,40 m 1,0 0,-40 m 1,0 0,40 m 1,0 0,-40 m 1,0 0,40 m 1,0 0,-40 m 1,0 0,40 m 1,0 0,-40 m 1,0 0,40 m 1,0 0,-40 m 1,0 0,40 m 1,0 0,-40 m 1,0 0,40 m 1,0 0,-40 m 1,0 0,40 m 1,0 0,-40 m 1,0 0,40 m 1,0 0,-40 m 1,0 0,40 m 1,0 0,-40 m 1,0 0,40 m 1,0 0,-40 m 1,0 0,40 m 1,0 0,-40 m 1,0 0,40 m 1,0 0,-40 m 1,0 0,40 m 1,0 0,-40 m 1,0 0,40 m 1,0 0,-40 m 1,0 0,40 m 1,0 0,-40 m 1,0 0,40 m 1,0 0,-40 m 1,0 0,40 m 1,0 0,-40 m 1,0 0,40 m 1,0 0,-40 m 1,0 0,40 m 1,0 0,-40 m 1,0 0,40 m 1,0 0,-40 m 1,0 0,40 m 1,0 0,-40 m 1,0 0,40 m 1,0 0,-40 m 1,0 0,40 m 1,0 0,-40 m 1,0 0,40 m 1,0 0,-40 m 1,0 0,40 m 1,0 0,-40 m 1,0 0,40 m 1,0 0,-40 m 1,0 0,40 m 1,0 0,-40 m 1,0 0,40 m 1,0 0,-40 m 1,0 0,40 m 1,0 0,-40 m 1,0 0,40 m 1,0 0,-40 m 1,0 0,40 m 1,0 0,-40 m 1,0 0,40 m 1,0 0,-40 m 1,0 0,40 m 1,0 0,-40 m 1,0 0,40 m 1,0 0,-40 m 1,0 0,40 m 1,0 0,-40 m 1,0 0,40 m 1,0 0,-40 m 1,0 0,40 m 1,0 0,-40 m 1,0 0,40 m 1,0 0,-40 m 1,-400 0,40 m 0,400 0,-80 m 1,-360 0,40 m 0,400 0,-80 m 1,-360 0,40 m 0,400 0,-80 m 1,-360 0,40 m 0,400 0,-80 m 1,-360 0,40 m 0,400 0,-80 m 1,-360 0,40 m 0,400 0,-80 m 1,-360 0,40 m 0,400 0,-80 m 1,-360 0,40 m 0,400 0,-80 m 1,-360 0,40 m 0,400 0,-80 m 1,-360 0,40 m 0,400 0,-80 m 1,-360 0,40 m 0,400 0,-80 m 1,-360 0,40 m 0,400 0,-80 m 1,-360 0,40 m 0,400 0,-80 m 1,-360 0,40 m 0,400 0,-80 m 1,-360 0,40 m 0,400 0,-80 m 1,-360 0,40 m 0,400 0,-80 m 1,-360 0,40 m 0,400 0,-80 m 1,-360 0,40 m 0,400 0,-80 m 1,-360 0,40 m 0,400 0,-80 m 1,-360 0,40 m 0,400 0,-80 m 1,-360 0,40 m 0,400 0,-80 m 1,-360 0,40 m 0,400 0,-80 m 1,-360 0,40 m 0,400 0,-80 m 1,-360 0,40 m 0,400 0,-80 m 1,-360 0,40 m 0,400 0,-80 m 1,-360 0,40 m 0,400 0,-80 m 1,-360 0,40 m 0,400 0,-80 m 1,-360 0,40 m 0,400 0,-80 m 1,-360 0,40 m 0,400 0,-80 m 1,-360 0,40 m 0,400 0,-80 m 1,-360 0,40 m 0,400 0,-80 m 1,-360 0,40 m 0,400 0,-80 m 1,-360 0,40 m 0,400 0,-80 m 1,-360 0,40 m 0,400 0,-80 m 1,-360 0,40 m 0,400 0,-80 m 1,-360 0,40 m 0,400 0,-80 m 1,-360 0,40 m 0,400 0,-80 m 1,-360 0,40 m 0,400 0,-80 m 1,-360 0,40 m 0,400 0,-80 m 1,-360 0,40 m 0,400 0,-80 m 1,-320 0,40 m 0,360 0,-120 m 1,-280 0,40 m 0,360 0,-120 m 1,-280 0,40 m 0,360 0,-120 m 1,-280 0,40 m 0,360 0,-120 m 1,-280 0,40 m 0,360 0,-120 m 1,-280 0,40 m 0,360 0,-120 m 1,-280 0,40 m 0,360 0,-120 m 1,-280 0,40 m 0,360 0,-120 m 1,-280 0,40 m 0,360 0,-120 m 1,-280 0,40 m 0,360 0,-120 m 1,-280 0,40 m 0,360 0,-120 m 1,-280 0,40 m 0,360 0,-120 m 1,-280 0,40 m 0,360 0,-120 m 1,-280 0,40 m 0,360 0,-120 m 1,-280 0,40 m 0,360 0,-120 m 1,-280 0,40 m 0,360 0,-120 m 1,-280 0,40 m 0,360 0,-120 m 1,-280 0,40 m 0,360 0,-120 m 1,-280 0,40 m 0,360 0,-120 m 1,-280 0,40 m 0,360 0,-120 m 1,-280 0,40 m 0,360 0,-120 m 1,-280 0,40 m 0,360 0,-120 m 1,-280 0,40 m 0,360 0,-120 m 1,-280 0,40 m 0,360 0,-120 m 1,-280 0,40 m 0,360 0,-120 m 1,-280 0,40 m 0,360 0,-120 m 1,-280 0,40 m 0,360 0,-120 m 1,-280 0,40 m 0,360 0,-120 m 1,-280 0,40 m 0,360 0,-120 m 1,-280 0,40 m 0,360 0,-120 m 1,-280 0,40 m 0,360 0,-120 m 1,-280 0,40 m 0,360 0,-120 m 1,-280 0,40 m 0,360 0,-120 m 1,-280 0,40 m 0,360 0,-120 m 1,-280 0,40 m 0,360 0,-120 m 1,-280 0,40 m 0,360 0,-120 m 1,-280 0,40 m 0,360 0,-120 m 1,-280 0,40 m 0,360 0,-120 m 1,-280 0,40 m 0,360 0,-120 m 1,-280 0,40 m 0,360 0,-120 m 1,-280 0,360 m 1,0 0,-360 m 1,0 0,360 m 1,0 0,-360 m 1,0 0,360 m 1,0 0,-360 m 1,0 0,360 m 1,0 0,-360 m 1,0 0,360 m 1,0 0,-360 m 1,0 0,360 m 1,0 0,-360 m 1,0 0,360 m 1,0 0,-360 m 1,0 0,360 m 1,0 0,-360 m 1,0 0,360 m 1,0 0,-360 m 1,0 0,360 m 1,0 0,-360 m 1,0 0,360 m 1,0 0,-360 m 1,0 0,360 m 1,0 0,-360 m 1,0 0,360 m 1,0 0,-360 m 1,0 0,360 m 1,0 0,-360 m 1,0 0,360 m 1,0 0,-360 m 1,0 0,360 m 1,0 0,-360 m 1,0 0,360 m 1,0 0,-360 m 1,0 0,360 m 1,0 0,-360 m 1,0 0,360 m 1,0 0,-360 m 1,0 0,360 m 1,0 0,-360 m 1,80 0,280 m 1,0 0,-280 m 1,0 0,280 m 1,0 0,-280 m 1,0 0,280 m 1,0 0,-280 m 1,0 0,280 m 1,0 0,-280 m 1,0 0,280 m 1,0 0,-280 m 1,0 0,280 m 1,0 0,-280 m 1,0 0,280 m 1,0 0,-280 m 1,0 0,280 m 1,0 0,-280 m 1,0 0,280 m 1,0 0,-280 m 1,0 0,280 m 1,0 0,-280 m 1,0 0,280 m 1,0 0,-280 m 1,0 0,280 m 1,0 0,-280 m 1,0 0,280 m 1,0 0,-280 m 1,0 0,280 m 1,0 0,-280 m 1,0 0,280 m 1,0 0,-280 m 1,0 0,280 m 1,0 0,-280 m 1,0 0,280 m 1,0 0,-280 m 1,0 0,280 m 1,0 0,-280 m 1,0 0,280 m 1,0 0,-280 m 1,0 0,280 m 1,0 0,-280 m 1,80 0,120 m 1,0 0,-120 m 1,0 0,120 m 1,0 0,-120 m 1,0 0,120 m 1,0 0,-120 m 1,0 0,120 m 1,0 0,-120 m 1,0 0,120 m 1,0 0,-120 m 1,0 0,120 m 1,0 0,-120 m 1,0 0,120 m 1,0 0,-120 m 1,0 0,120 m 1,0 0,-120 m 1,0 0,120 m 1,0 0,-120 m 1,0 0,120 m 1,0 0,-120 m 1,0 0,120 m 1,0 0,-120 m 1,0 0,120 m 1,0 0,-120 m 1,0 0,120 m 1,0 0,-120 m 1,0 0,120 m 1,0 0,-120 m 1,0 0,120 m 1,0 0,-120 m 1,0 0,120 m 1,0 0,-120 m 1,0 0,120 m 1,0 0,-120 m 1,0 0,120 m 1,0 0,-120 m 1,0 0,120 m 1,0 0,-120 m 1,0 0,120 m 1,0 0,-120"
           style="fill:none;stroke:#000000;stroke-width:1"
           inkscape:connector-curvature="0" />
      </g>
      <g
         transform="translate(-680,100)"
         id="g7144"
         style="display:inline">
        <path
           style="fill:none;stroke:#000000;stroke-width:1px;stroke-linecap:butt;stroke-linejoin:miter;stroke-opacity:1"
           d="m 1440,460 0,40 80,0 0,-40 z"
           id="path7146"
           inkscape:connector-curvature="0" />
        <path
           inkscape:connector-curvature="0"
           style="fill:none;stroke:#000000;stroke-width:1"
           d="m 1440.2786,460 0,40 m 1,0 0,-40 m 1,0 0,40 m 1,0 0,-40 m 1,0 0,40 m 1,0 0,-40 m 1,0 0,40 m 1,0 0,-40 m 1,0 0,40 m 1,0 0,-40 m 1,0 0,40 m 1,0 0,-40 m 1,0 0,40 m 1,0 0,-40 m 1,0 0,40 m 1,0 0,-40 m 1,0 0,40 m 1,0 0,-40 m 1,0 0,40 m 1,0 0,-40 m 1,0 0,40 m 1,0 0,-40 m 1,0 0,40 m 1,0 0,-40 m 1,0 0,40 m 1,0 0,-40 m 1,0 0,40 m 1,0 0,-40 m 1,0 0,40 m 1,0 0,-40 m 1,0 0,40 m 1,0 0,-40 m 1,0 0,40 m 1,0 0,-40 m 1,0 0,40 m 1,0 0,-40 m 1,0 0,40 m 1,0 0,-40 m 1,0 0,40 m 1,0 0,-40 m 1,0 0,40 m 1,0 0,-40 m 1,0 0,40 m 1,0 0,-40 m 1,0 0,40 m 1,0 0,-40 m 1,0 0,40 m 1,0 0,-40 m 1,0 0,40 m 1,0 0,-40 m 1,0 0,40 m 1,0 0,-40 m 1,0 0,40 m 1,0 0,-40 m 1,0 0,40 m 1,0 0,-40 m 1,0 0,40 m 1,0 0,-40 m 1,0 0,40 m 1,0 0,-40 m 1,0 0,40 m 1,0 0,-40 m 1,0 0,40 m 1,0 0,-40 m 1,0 0,40 m 1,0 0,-40 m 1,0 0,40 m 1,0 0,-40 m 1,0 0,40 m 1,0 0,-40 m 1,0 0,40 m 1,0 0,-40 m 1,0 0,40 m 1,0 0,-40 m 1,0 0,40 m 1,0 0,-40 m 1,0 0,40 m 1,0 0,-40 m 1,0 0,40 m 1,0 0,-40"
           id="path7148" />
      </g>
      <g
         id="g7150"
         transform="translate(-680,100)"
         style="display:inline">
        <path
           inkscape:connector-curvature="0"
           id="path7152"
           d="m 1400,380 0,40 40,0 0,-40 z"
           style="fill:none;stroke:#000000;stroke-width:1px;stroke-linecap:butt;stroke-linejoin:miter;stroke-opacity:1" />
        <path
           id="path7154"
           d="m 1400.7157,380 0,40 m 1,0 0,-40 m 1,0 0,40 m 1,0 0,-40 m 1,0 0,40 m 1,0 0,-40 m 1,0 0,40 m 1,0 0,-40 m 1,0 0,40 m 1,0 0,-40 m 1,0 0,40 m 1,0 0,-40 m 1,0 0,40 m 1,0 0,-40 m 1,0 0,40 m 1,0 0,-40 m 1,0 0,40 m 1,0 0,-40 m 1,0 0,40 m 1,0 0,-40 m 1,0 0,40 m 1,0 0,-40 m 1,0 0,40 m 1,0 0,-40 m 1,0 0,40 m 1,0 0,-40 m 1,0 0,40 m 1,0 0,-40 m 1,0 0,40 m 1,0 0,-40 m 1,0 0,40 m 1,0 0,-40 m 1,0 0,40 m 1,0 0,-40 m 1,0 0,40 m 1,0 0,-40 m 1,0 0,40 m 1,0 0,-40 m 1,0 0,40 m 1,0 0,-40"
           style="fill:none;stroke:#000000;stroke-width:1"
           inkscape:connector-curvature="0" />
      </g>
    </g>
    <g
       id="g7248"
       transform="matrix(1.3846154,0,0,0.83076924,698.46153,45.35385)">
      <g
         id="g7250"
         transform="translate(-680,100)">
        <path
           inkscape:connector-curvature="0"
           id="path7252"
           d="m 1520,500 0,40 160,0 0,-40 80,0 0,-80 40,0 0,-120 -40,0 0,-80 -40,0 0,-80 -80,0 0,-40 -40,0 0,40 40,0 0,40 40,0 0,240 -40,0 0,40 -40,0 0,40 z"
           style="fill:none;stroke:#000000;stroke-width:1px;stroke-linecap:butt;stroke-linejoin:miter;stroke-opacity:1" />
        <path
           id="path7254"
           d="m 1520.2319,500 0,40 m 1,0 0,-40 m 1,0 0,40 m 1,0 0,-40 m 1,0 0,40 m 1,0 0,-40 m 1,0 0,40 m 1,0 0,-40 m 1,0 0,40 m 1,0 0,-40 m 1,0 0,40 m 1,0 0,-40 m 1,0 0,40 m 1,0 0,-40 m 1,0 0,40 m 1,0 0,-40 m 1,0 0,40 m 1,0 0,-40 m 1,0 0,40 m 1,0 0,-40 m 1,0 0,40 m 1,0 0,-40 m 1,0 0,40 m 1,0 0,-40 m 1,0 0,40 m 1,0 0,-40 m 1,0 0,40 m 1,0 0,-40 m 1,0 0,40 m 1,0 0,-40 m 1,0 0,40 m 1,0 0,-40 m 1,0 0,40 m 1,0 0,-40 m 1,0 0,40 m 1,0 0,-40 m 1,0 0,40 m 1,0 0,-40 m 1,0 0,40 m 1,0 0,-40 m 1,0 0,40 m 1,0 0,-40 m 1,0 0,40 m 1,0 0,-40 m 1,0 0,40 m 1,0 0,-40 m 1,0 0,40 m 1,0 0,-40 m 1,0 0,40 m 1,0 0,-40 m 1,0 0,40 m 1,0 0,-40 m 1,0 0,40 m 1,0 0,-40 m 1,0 0,40 m 1,0 0,-40 m 1,0 0,40 m 1,0 0,-40 m 1,0 0,40 m 1,0 0,-40 m 1,0 0,40 m 1,0 0,-40 m 1,0 0,40 m 1,0 0,-40 m 1,0 0,40 m 1,0 0,-40 m 1,0 0,40 m 1,0 0,-40 m 1,0 0,40 m 1,0 0,-40 m 1,0 0,40 m 1,0 0,-40 m 1,0 0,40 m 1,0 0,-40 m 1,0 0,40 m 1,0 0,-40 m 1,0 0,40 m 1,0 0,-40 m 1,0 0,40 m 1,0 0,-40 m 1,-400 0,40 m 0,400 0,-80 m 1,-360 0,40 m 0,400 0,-80 m 1,-360 0,40 m 0,400 0,-80 m 1,-360 0,40 m 0,400 0,-80 m 1,-360 0,40 m 0,400 0,-80 m 1,-360 0,40 m 0,400 0,-80 m 1,-360 0,40 m 0,400 0,-80 m 1,-360 0,40 m 0,400 0,-80 m 1,-360 0,40 m 0,400 0,-80 m 1,-360 0,40 m 0,400 0,-80 m 1,-360 0,40 m 0,400 0,-80 m 1,-360 0,40 m 0,400 0,-80 m 1,-360 0,40 m 0,400 0,-80 m 1,-360 0,40 m 0,400 0,-80 m 1,-360 0,40 m 0,400 0,-80 m 1,-360 0,40 m 0,400 0,-80 m 1,-360 0,40 m 0,400 0,-80 m 1,-360 0,40 m 0,400 0,-80 m 1,-360 0,40 m 0,400 0,-80 m 1,-360 0,40 m 0,400 0,-80 m 1,-360 0,40 m 0,400 0,-80 m 1,-360 0,40 m 0,400 0,-80 m 1,-360 0,40 m 0,400 0,-80 m 1,-360 0,40 m 0,400 0,-80 m 1,-360 0,40 m 0,400 0,-80 m 1,-360 0,40 m 0,400 0,-80 m 1,-360 0,40 m 0,400 0,-80 m 1,-360 0,40 m 0,400 0,-80 m 1,-360 0,40 m 0,400 0,-80 m 1,-360 0,40 m 0,400 0,-80 m 1,-360 0,40 m 0,400 0,-80 m 1,-360 0,40 m 0,400 0,-80 m 1,-360 0,40 m 0,400 0,-80 m 1,-360 0,40 m 0,400 0,-80 m 1,-360 0,40 m 0,400 0,-80 m 1,-360 0,40 m 0,400 0,-80 m 1,-360 0,40 m 0,400 0,-80 m 1,-360 0,40 m 0,400 0,-80 m 1,-360 0,40 m 0,400 0,-80 m 1,-360 0,40 m 0,400 0,-80 m 1,-320 0,40 m 0,360 0,-120 m 1,-280 0,40 m 0,360 0,-120 m 1,-280 0,40 m 0,360 0,-120 m 1,-280 0,40 m 0,360 0,-120 m 1,-280 0,40 m 0,360 0,-120 m 1,-280 0,40 m 0,360 0,-120 m 1,-280 0,40 m 0,360 0,-120 m 1,-280 0,40 m 0,360 0,-120 m 1,-280 0,40 m 0,360 0,-120 m 1,-280 0,40 m 0,360 0,-120 m 1,-280 0,40 m 0,360 0,-120 m 1,-280 0,40 m 0,360 0,-120 m 1,-280 0,40 m 0,360 0,-120 m 1,-280 0,40 m 0,360 0,-120 m 1,-280 0,40 m 0,360 0,-120 m 1,-280 0,40 m 0,360 0,-120 m 1,-280 0,40 m 0,360 0,-120 m 1,-280 0,40 m 0,360 0,-120 m 1,-280 0,40 m 0,360 0,-120 m 1,-280 0,40 m 0,360 0,-120 m 1,-280 0,40 m 0,360 0,-120 m 1,-280 0,40 m 0,360 0,-120 m 1,-280 0,40 m 0,360 0,-120 m 1,-280 0,40 m 0,360 0,-120 m 1,-280 0,40 m 0,360 0,-120 m 1,-280 0,40 m 0,360 0,-120 m 1,-280 0,40 m 0,360 0,-120 m 1,-280 0,40 m 0,360 0,-120 m 1,-280 0,40 m 0,360 0,-120 m 1,-280 0,40 m 0,360 0,-120 m 1,-280 0,40 m 0,360 0,-120 m 1,-280 0,40 m 0,360 0,-120 m 1,-280 0,40 m 0,360 0,-120 m 1,-280 0,40 m 0,360 0,-120 m 1,-280 0,40 m 0,360 0,-120 m 1,-280 0,40 m 0,360 0,-120 m 1,-280 0,40 m 0,360 0,-120 m 1,-280 0,40 m 0,360 0,-120 m 1,-280 0,40 m 0,360 0,-120 m 1,-280 0,40 m 0,360 0,-120 m 1,-280 0,360 m 1,0 0,-360 m 1,0 0,360 m 1,0 0,-360 m 1,0 0,360 m 1,0 0,-360 m 1,0 0,360 m 1,0 0,-360 m 1,0 0,360 m 1,0 0,-360 m 1,0 0,360 m 1,0 0,-360 m 1,0 0,360 m 1,0 0,-360 m 1,0 0,360 m 1,0 0,-360 m 1,0 0,360 m 1,0 0,-360 m 1,0 0,360 m 1,0 0,-360 m 1,0 0,360 m 1,0 0,-360 m 1,0 0,360 m 1,0 0,-360 m 1,0 0,360 m 1,0 0,-360 m 1,0 0,360 m 1,0 0,-360 m 1,0 0,360 m 1,0 0,-360 m 1,0 0,360 m 1,0 0,-360 m 1,0 0,360 m 1,0 0,-360 m 1,0 0,360 m 1,0 0,-360 m 1,0 0,360 m 1,0 0,-360 m 1,0 0,360 m 1,0 0,-360 m 1,80 0,280 m 1,0 0,-280 m 1,0 0,280 m 1,0 0,-280 m 1,0 0,280 m 1,0 0,-280 m 1,0 0,280 m 1,0 0,-280 m 1,0 0,280 m 1,0 0,-280 m 1,0 0,280 m 1,0 0,-280 m 1,0 0,280 m 1,0 0,-280 m 1,0 0,280 m 1,0 0,-280 m 1,0 0,280 m 1,0 0,-280 m 1,0 0,280 m 1,0 0,-280 m 1,0 0,280 m 1,0 0,-280 m 1,0 0,280 m 1,0 0,-280 m 1,0 0,280 m 1,0 0,-280 m 1,0 0,280 m 1,0 0,-280 m 1,0 0,280 m 1,0 0,-280 m 1,0 0,280 m 1,0 0,-280 m 1,0 0,280 m 1,0 0,-280 m 1,0 0,280 m 1,0 0,-280 m 1,0 0,280 m 1,0 0,-280 m 1,0 0,280 m 1,0 0,-280 m 1,80 0,120 m 1,0 0,-120 m 1,0 0,120 m 1,0 0,-120 m 1,0 0,120 m 1,0 0,-120 m 1,0 0,120 m 1,0 0,-120 m 1,0 0,120 m 1,0 0,-120 m 1,0 0,120 m 1,0 0,-120 m 1,0 0,120 m 1,0 0,-120 m 1,0 0,120 m 1,0 0,-120 m 1,0 0,120 m 1,0 0,-120 m 1,0 0,120 m 1,0 0,-120 m 1,0 0,120 m 1,0 0,-120 m 1,0 0,120 m 1,0 0,-120 m 1,0 0,120 m 1,0 0,-120 m 1,0 0,120 m 1,0 0,-120 m 1,0 0,120 m 1,0 0,-120 m 1,0 0,120 m 1,0 0,-120 m 1,0 0,120 m 1,0 0,-120 m 1,0 0,120 m 1,0 0,-120 m 1,0 0,120 m 1,0 0,-120 m 1,0 0,120 m 1,0 0,-120"
           style="fill:none;stroke:#000000;stroke-width:1"
           inkscape:connector-curvature="0" />
      </g>
      <g
         transform="translate(-680,100)"
         id="g7256"
         style="display:inline">
        <path
           style="fill:none;stroke:#000000;stroke-width:1px;stroke-linecap:butt;stroke-linejoin:miter;stroke-opacity:1"
           d="m 1440,460 0,40 80,0 0,-40 z"
           id="path7258"
           inkscape:connector-curvature="0" />
        <path
           inkscape:connector-curvature="0"
           style="fill:none;stroke:#000000;stroke-width:1"
           d="m 1440.2786,460 0,40 m 1,0 0,-40 m 1,0 0,40 m 1,0 0,-40 m 1,0 0,40 m 1,0 0,-40 m 1,0 0,40 m 1,0 0,-40 m 1,0 0,40 m 1,0 0,-40 m 1,0 0,40 m 1,0 0,-40 m 1,0 0,40 m 1,0 0,-40 m 1,0 0,40 m 1,0 0,-40 m 1,0 0,40 m 1,0 0,-40 m 1,0 0,40 m 1,0 0,-40 m 1,0 0,40 m 1,0 0,-40 m 1,0 0,40 m 1,0 0,-40 m 1,0 0,40 m 1,0 0,-40 m 1,0 0,40 m 1,0 0,-40 m 1,0 0,40 m 1,0 0,-40 m 1,0 0,40 m 1,0 0,-40 m 1,0 0,40 m 1,0 0,-40 m 1,0 0,40 m 1,0 0,-40 m 1,0 0,40 m 1,0 0,-40 m 1,0 0,40 m 1,0 0,-40 m 1,0 0,40 m 1,0 0,-40 m 1,0 0,40 m 1,0 0,-40 m 1,0 0,40 m 1,0 0,-40 m 1,0 0,40 m 1,0 0,-40 m 1,0 0,40 m 1,0 0,-40 m 1,0 0,40 m 1,0 0,-40 m 1,0 0,40 m 1,0 0,-40 m 1,0 0,40 m 1,0 0,-40 m 1,0 0,40 m 1,0 0,-40 m 1,0 0,40 m 1,0 0,-40 m 1,0 0,40 m 1,0 0,-40 m 1,0 0,40 m 1,0 0,-40 m 1,0 0,40 m 1,0 0,-40 m 1,0 0,40 m 1,0 0,-40 m 1,0 0,40 m 1,0 0,-40 m 1,0 0,40 m 1,0 0,-40 m 1,0 0,40 m 1,0 0,-40 m 1,0 0,40 m 1,0 0,-40 m 1,0 0,40 m 1,0 0,-40 m 1,0 0,40 m 1,0 0,-40"
           id="path7260" />
      </g>
      <g
         id="g7262"
         transform="translate(-680,100)"
         style="display:inline">
        <path
           inkscape:connector-curvature="0"
           id="path7264"
           d="m 1400,380 0,40 40,0 0,-40 z"
           style="fill:none;stroke:#000000;stroke-width:1px;stroke-linecap:butt;stroke-linejoin:miter;stroke-opacity:1" />
        <path
           id="path7266"
           d="m 1400.7157,380 0,40 m 1,0 0,-40 m 1,0 0,40 m 1,0 0,-40 m 1,0 0,40 m 1,0 0,-40 m 1,0 0,40 m 1,0 0,-40 m 1,0 0,40 m 1,0 0,-40 m 1,0 0,40 m 1,0 0,-40 m 1,0 0,40 m 1,0 0,-40 m 1,0 0,40 m 1,0 0,-40 m 1,0 0,40 m 1,0 0,-40 m 1,0 0,40 m 1,0 0,-40 m 1,0 0,40 m 1,0 0,-40 m 1,0 0,40 m 1,0 0,-40 m 1,0 0,40 m 1,0 0,-40 m 1,0 0,40 m 1,0 0,-40 m 1,0 0,40 m 1,0 0,-40 m 1,0 0,40 m 1,0 0,-40 m 1,0 0,40 m 1,0 0,-40 m 1,0 0,40 m 1,0 0,-40 m 1,0 0,40 m 1,0 0,-40 m 1,0 0,40 m 1,0 0,-40"
           style="fill:none;stroke:#000000;stroke-width:1"
           inkscape:connector-curvature="0" />
      </g>
    </g>
    <g
       transform="matrix(1.3846154,0,0,0.83076924,1413.4614,48.35385)"
       id="g7268">
      <g
         transform="translate(-680,100)"
         id="g7270">
        <path
           style="fill:none;stroke:#000000;stroke-width:1px;stroke-linecap:butt;stroke-linejoin:miter;stroke-opacity:1"
           d="m 1520,500 0,40 160,0 0,-40 80,0 0,-80 40,0 0,-120 -40,0 0,-80 -40,0 0,-80 -80,0 0,-40 -40,0 0,40 40,0 0,40 40,0 0,240 -40,0 0,40 -40,0 0,40 z"
           id="path7272"
           inkscape:connector-curvature="0" />
        <path
           inkscape:connector-curvature="0"
           style="fill:none;stroke:#000000;stroke-width:1"
           d="m 1520.2319,500 0,40 m 1,0 0,-40 m 1,0 0,40 m 1,0 0,-40 m 1,0 0,40 m 1,0 0,-40 m 1,0 0,40 m 1,0 0,-40 m 1,0 0,40 m 1,0 0,-40 m 1,0 0,40 m 1,0 0,-40 m 1,0 0,40 m 1,0 0,-40 m 1,0 0,40 m 1,0 0,-40 m 1,0 0,40 m 1,0 0,-40 m 1,0 0,40 m 1,0 0,-40 m 1,0 0,40 m 1,0 0,-40 m 1,0 0,40 m 1,0 0,-40 m 1,0 0,40 m 1,0 0,-40 m 1,0 0,40 m 1,0 0,-40 m 1,0 0,40 m 1,0 0,-40 m 1,0 0,40 m 1,0 0,-40 m 1,0 0,40 m 1,0 0,-40 m 1,0 0,40 m 1,0 0,-40 m 1,0 0,40 m 1,0 0,-40 m 1,0 0,40 m 1,0 0,-40 m 1,0 0,40 m 1,0 0,-40 m 1,0 0,40 m 1,0 0,-40 m 1,0 0,40 m 1,0 0,-40 m 1,0 0,40 m 1,0 0,-40 m 1,0 0,40 m 1,0 0,-40 m 1,0 0,40 m 1,0 0,-40 m 1,0 0,40 m 1,0 0,-40 m 1,0 0,40 m 1,0 0,-40 m 1,0 0,40 m 1,0 0,-40 m 1,0 0,40 m 1,0 0,-40 m 1,0 0,40 m 1,0 0,-40 m 1,0 0,40 m 1,0 0,-40 m 1,0 0,40 m 1,0 0,-40 m 1,0 0,40 m 1,0 0,-40 m 1,0 0,40 m 1,0 0,-40 m 1,0 0,40 m 1,0 0,-40 m 1,0 0,40 m 1,0 0,-40 m 1,0 0,40 m 1,0 0,-40 m 1,0 0,40 m 1,0 0,-40 m 1,0 0,40 m 1,0 0,-40 m 1,-400 0,40 m 0,400 0,-80 m 1,-360 0,40 m 0,400 0,-80 m 1,-360 0,40 m 0,400 0,-80 m 1,-360 0,40 m 0,400 0,-80 m 1,-360 0,40 m 0,400 0,-80 m 1,-360 0,40 m 0,400 0,-80 m 1,-360 0,40 m 0,400 0,-80 m 1,-360 0,40 m 0,400 0,-80 m 1,-360 0,40 m 0,400 0,-80 m 1,-360 0,40 m 0,400 0,-80 m 1,-360 0,40 m 0,400 0,-80 m 1,-360 0,40 m 0,400 0,-80 m 1,-360 0,40 m 0,400 0,-80 m 1,-360 0,40 m 0,400 0,-80 m 1,-360 0,40 m 0,400 0,-80 m 1,-360 0,40 m 0,400 0,-80 m 1,-360 0,40 m 0,400 0,-80 m 1,-360 0,40 m 0,400 0,-80 m 1,-360 0,40 m 0,400 0,-80 m 1,-360 0,40 m 0,400 0,-80 m 1,-360 0,40 m 0,400 0,-80 m 1,-360 0,40 m 0,400 0,-80 m 1,-360 0,40 m 0,400 0,-80 m 1,-360 0,40 m 0,400 0,-80 m 1,-360 0,40 m 0,400 0,-80 m 1,-360 0,40 m 0,400 0,-80 m 1,-360 0,40 m 0,400 0,-80 m 1,-360 0,40 m 0,400 0,-80 m 1,-360 0,40 m 0,400 0,-80 m 1,-360 0,40 m 0,400 0,-80 m 1,-360 0,40 m 0,400 0,-80 m 1,-360 0,40 m 0,400 0,-80 m 1,-360 0,40 m 0,400 0,-80 m 1,-360 0,40 m 0,400 0,-80 m 1,-360 0,40 m 0,400 0,-80 m 1,-360 0,40 m 0,400 0,-80 m 1,-360 0,40 m 0,400 0,-80 m 1,-360 0,40 m 0,400 0,-80 m 1,-360 0,40 m 0,400 0,-80 m 1,-360 0,40 m 0,400 0,-80 m 1,-320 0,40 m 0,360 0,-120 m 1,-280 0,40 m 0,360 0,-120 m 1,-280 0,40 m 0,360 0,-120 m 1,-280 0,40 m 0,360 0,-120 m 1,-280 0,40 m 0,360 0,-120 m 1,-280 0,40 m 0,360 0,-120 m 1,-280 0,40 m 0,360 0,-120 m 1,-280 0,40 m 0,360 0,-120 m 1,-280 0,40 m 0,360 0,-120 m 1,-280 0,40 m 0,360 0,-120 m 1,-280 0,40 m 0,360 0,-120 m 1,-280 0,40 m 0,360 0,-120 m 1,-280 0,40 m 0,360 0,-120 m 1,-280 0,40 m 0,360 0,-120 m 1,-280 0,40 m 0,360 0,-120 m 1,-280 0,40 m 0,360 0,-120 m 1,-280 0,40 m 0,360 0,-120 m 1,-280 0,40 m 0,360 0,-120 m 1,-280 0,40 m 0,360 0,-120 m 1,-280 0,40 m 0,360 0,-120 m 1,-280 0,40 m 0,360 0,-120 m 1,-280 0,40 m 0,360 0,-120 m 1,-280 0,40 m 0,360 0,-120 m 1,-280 0,40 m 0,360 0,-120 m 1,-280 0,40 m 0,360 0,-120 m 1,-280 0,40 m 0,360 0,-120 m 1,-280 0,40 m 0,360 0,-120 m 1,-280 0,40 m 0,360 0,-120 m 1,-280 0,40 m 0,360 0,-120 m 1,-280 0,40 m 0,360 0,-120 m 1,-280 0,40 m 0,360 0,-120 m 1,-280 0,40 m 0,360 0,-120 m 1,-280 0,40 m 0,360 0,-120 m 1,-280 0,40 m 0,360 0,-120 m 1,-280 0,40 m 0,360 0,-120 m 1,-280 0,40 m 0,360 0,-120 m 1,-280 0,40 m 0,360 0,-120 m 1,-280 0,40 m 0,360 0,-120 m 1,-280 0,40 m 0,360 0,-120 m 1,-280 0,40 m 0,360 0,-120 m 1,-280 0,360 m 1,0 0,-360 m 1,0 0,360 m 1,0 0,-360 m 1,0 0,360 m 1,0 0,-360 m 1,0 0,360 m 1,0 0,-360 m 1,0 0,360 m 1,0 0,-360 m 1,0 0,360 m 1,0 0,-360 m 1,0 0,360 m 1,0 0,-360 m 1,0 0,360 m 1,0 0,-360 m 1,0 0,360 m 1,0 0,-360 m 1,0 0,360 m 1,0 0,-360 m 1,0 0,360 m 1,0 0,-360 m 1,0 0,360 m 1,0 0,-360 m 1,0 0,360 m 1,0 0,-360 m 1,0 0,360 m 1,0 0,-360 m 1,0 0,360 m 1,0 0,-360 m 1,0 0,360 m 1,0 0,-360 m 1,0 0,360 m 1,0 0,-360 m 1,0 0,360 m 1,0 0,-360 m 1,0 0,360 m 1,0 0,-360 m 1,0 0,360 m 1,0 0,-360 m 1,80 0,280 m 1,0 0,-280 m 1,0 0,280 m 1,0 0,-280 m 1,0 0,280 m 1,0 0,-280 m 1,0 0,280 m 1,0 0,-280 m 1,0 0,280 m 1,0 0,-280 m 1,0 0,280 m 1,0 0,-280 m 1,0 0,280 m 1,0 0,-280 m 1,0 0,280 m 1,0 0,-280 m 1,0 0,280 m 1,0 0,-280 m 1,0 0,280 m 1,0 0,-280 m 1,0 0,280 m 1,0 0,-280 m 1,0 0,280 m 1,0 0,-280 m 1,0 0,280 m 1,0 0,-280 m 1,0 0,280 m 1,0 0,-280 m 1,0 0,280 m 1,0 0,-280 m 1,0 0,280 m 1,0 0,-280 m 1,0 0,280 m 1,0 0,-280 m 1,0 0,280 m 1,0 0,-280 m 1,0 0,280 m 1,0 0,-280 m 1,0 0,280 m 1,0 0,-280 m 1,80 0,120 m 1,0 0,-120 m 1,0 0,120 m 1,0 0,-120 m 1,0 0,120 m 1,0 0,-120 m 1,0 0,120 m 1,0 0,-120 m 1,0 0,120 m 1,0 0,-120 m 1,0 0,120 m 1,0 0,-120 m 1,0 0,120 m 1,0 0,-120 m 1,0 0,120 m 1,0 0,-120 m 1,0 0,120 m 1,0 0,-120 m 1,0 0,120 m 1,0 0,-120 m 1,0 0,120 m 1,0 0,-120 m 1,0 0,120 m 1,0 0,-120 m 1,0 0,120 m 1,0 0,-120 m 1,0 0,120 m 1,0 0,-120 m 1,0 0,120 m 1,0 0,-120 m 1,0 0,120 m 1,0 0,-120 m 1,0 0,120 m 1,0 0,-120 m 1,0 0,120 m 1,0 0,-120 m 1,0 0,120 m 1,0 0,-120 m 1,0 0,120 m 1,0 0,-120"
           id="path7274" />
      </g>
      <g
         style="display:inline"
         id="g7276"
         transform="translate(-680,100)">
        <path
           inkscape:connector-curvature="0"
           id="path7278"
           d="m 1440,460 0,40 80,0 0,-40 z"
           style="fill:none;stroke:#000000;stroke-width:1px;stroke-linecap:butt;stroke-linejoin:miter;stroke-opacity:1" />
        <path
           id="path7280"
           d="m 1440.2786,460 0,40 m 1,0 0,-40 m 1,0 0,40 m 1,0 0,-40 m 1,0 0,40 m 1,0 0,-40 m 1,0 0,40 m 1,0 0,-40 m 1,0 0,40 m 1,0 0,-40 m 1,0 0,40 m 1,0 0,-40 m 1,0 0,40 m 1,0 0,-40 m 1,0 0,40 m 1,0 0,-40 m 1,0 0,40 m 1,0 0,-40 m 1,0 0,40 m 1,0 0,-40 m 1,0 0,40 m 1,0 0,-40 m 1,0 0,40 m 1,0 0,-40 m 1,0 0,40 m 1,0 0,-40 m 1,0 0,40 m 1,0 0,-40 m 1,0 0,40 m 1,0 0,-40 m 1,0 0,40 m 1,0 0,-40 m 1,0 0,40 m 1,0 0,-40 m 1,0 0,40 m 1,0 0,-40 m 1,0 0,40 m 1,0 0,-40 m 1,0 0,40 m 1,0 0,-40 m 1,0 0,40 m 1,0 0,-40 m 1,0 0,40 m 1,0 0,-40 m 1,0 0,40 m 1,0 0,-40 m 1,0 0,40 m 1,0 0,-40 m 1,0 0,40 m 1,0 0,-40 m 1,0 0,40 m 1,0 0,-40 m 1,0 0,40 m 1,0 0,-40 m 1,0 0,40 m 1,0 0,-40 m 1,0 0,40 m 1,0 0,-40 m 1,0 0,40 m 1,0 0,-40 m 1,0 0,40 m 1,0 0,-40 m 1,0 0,40 m 1,0 0,-40 m 1,0 0,40 m 1,0 0,-40 m 1,0 0,40 m 1,0 0,-40 m 1,0 0,40 m 1,0 0,-40 m 1,0 0,40 m 1,0 0,-40 m 1,0 0,40 m 1,0 0,-40 m 1,0 0,40 m 1,0 0,-40 m 1,0 0,40 m 1,0 0,-40 m 1,0 0,40 m 1,0 0,-40"
           style="fill:none;stroke:#000000;stroke-width:1"
           inkscape:connector-curvature="0" />
      </g>
      <g
         style="display:inline"
         transform="translate(-680,100)"
         id="g7282">
        <path
           style="fill:none;stroke:#000000;stroke-width:1px;stroke-linecap:butt;stroke-linejoin:miter;stroke-opacity:1"
           d="m 1400,380 0,40 40,0 0,-40 z"
           id="path7284"
           inkscape:connector-curvature="0" />
        <path
           inkscape:connector-curvature="0"
           style="fill:none;stroke:#000000;stroke-width:1"
           d="m 1400.7157,380 0,40 m 1,0 0,-40 m 1,0 0,40 m 1,0 0,-40 m 1,0 0,40 m 1,0 0,-40 m 1,0 0,40 m 1,0 0,-40 m 1,0 0,40 m 1,0 0,-40 m 1,0 0,40 m 1,0 0,-40 m 1,0 0,40 m 1,0 0,-40 m 1,0 0,40 m 1,0 0,-40 m 1,0 0,40 m 1,0 0,-40 m 1,0 0,40 m 1,0 0,-40 m 1,0 0,40 m 1,0 0,-40 m 1,0 0,40 m 1,0 0,-40 m 1,0 0,40 m 1,0 0,-40 m 1,0 0,40 m 1,0 0,-40 m 1,0 0,40 m 1,0 0,-40 m 1,0 0,40 m 1,0 0,-40 m 1,0 0,40 m 1,0 0,-40 m 1,0 0,40 m 1,0 0,-40 m 1,0 0,40 m 1,0 0,-40 m 1,0 0,40 m 1,0 0,-40"
           id="path7286" />
      </g>
    </g>
  </g>
  <g
     style="display:inline"
     inkscape:groupmode="layer"
     id="layer3"
     inkscape:label="2 pen">
    <g
       transform="matrix(1.3846154,0,0,0.83076924,-901.5385,45.35385)"
       id="g2632">
      <g
         style="display:inline"
         id="g1961"
         transform="translate(-680,-152.36218)">
        <path
           transform="translate(0,252.36218)"
           inkscape:connector-curvature="0"
           id="path1948"
           d="m 1560,60 0,40 80,0 0,-40 z"
           style="fill:none;stroke:#000000;stroke-width:1px;stroke-linecap:butt;stroke-linejoin:miter;stroke-opacity:1" />
        <path
           id="path1964"
           transform="translate(0,252.36218)"
           d="m 1560.5887,60 0,40 m 3,0 0,-40 m 3,0 0,40 m 3,0 0,-40 m 3,0 0,40 m 3,0 0,-40 m 3,0 0,40 m 3,0 0,-40 m 3,0 0,40 m 3,0 0,-40 m 3,0 0,40 m 3,0 0,-40 m 3,0 0,40 m 3,0 0,-40 m 3,0 0,40 m 3,0 0,-40 m 3,0 0,40 m 3,0 0,-40 m 3,0 0,40 m 3,0 0,-40 m 3,0 0,40 m 3,0 0,-40 m 3,0 0,40 m 3,0 0,-40 m 3,0 0,40 m 3,0 0,-40 m 3,0 0,40"
           style="fill:none;stroke:#000000;stroke-width:1"
           inkscape:connector-curvature="0" />
      </g>
      <g
         style="display:inline"
         id="g2049"
         transform="translate(-680,100)">
        <path
           inkscape:connector-curvature="0"
           id="path1924"
           d="m 1480,140 -40,0 0,80 40,0 z"
           style="fill:none;stroke:#000000;stroke-width:1px;stroke-linecap:butt;stroke-linejoin:miter;stroke-opacity:1" />
        <path
           id="path2052"
           d="m 1440.5887,140 0,80 m 3,0 0,-80 m 3,0 0,80 m 3,0 0,-80 m 3,0 0,80 m 3,0 0,-80 m 3,0 0,80 m 3,0 0,-80 m 3,0 0,80 m 3,0 0,-80 m 3,0 0,80 m 3,0 0,-80 m 3,0 0,80 m 3,0 0,-80"
           style="fill:none;stroke:#000000;stroke-width:1"
           inkscape:connector-curvature="0" />
      </g>
      <g
         style="display:inline"
         id="g2059"
         transform="translate(-680,100)">
        <path
           inkscape:connector-curvature="0"
           id="path1944"
           d="m 1760,220 -40,0 0,-80 40,0 z"
           style="fill:none;stroke:#000000;stroke-width:1px;stroke-linecap:butt;stroke-linejoin:miter;stroke-opacity:1" />
        <path
           id="path2062"
           d="m 1722.5887,140 0,80 m 3,0 0,-80 m 3,0 0,80 m 3,0 0,-80 m 3,0 0,80 m 3,0 0,-80 m 3,0 0,80 m 3,0 0,-80 m 3,0 0,80 m 3,0 0,-80 m 3,0 0,80 m 3,0 0,-80 m 3,0 0,80"
           style="fill:none;stroke:#000000;stroke-width:1"
           inkscape:connector-curvature="0" />
      </g>
      <g
         style="display:inline"
         id="g2064"
         transform="translate(-680,100)">
        <path
           inkscape:connector-curvature="0"
           id="path1942"
           d="m 1800,300 -40,0 0,-80 40,0 z"
           style="fill:none;stroke:#000000;stroke-width:1px;stroke-linecap:butt;stroke-linejoin:miter;stroke-opacity:1" />
        <path
           id="path2067"
           d="m 1761.5887,220 0,80 m 3,0 0,-80 m 3,0 0,80 m 3,0 0,-80 m 3,0 0,80 m 3,0 0,-80 m 3,0 0,80 m 3,0 0,-80 m 3,0 0,80 m 3,0 0,-80 m 3,0 0,80 m 3,0 0,-80 m 3,0 0,80"
           style="fill:none;stroke:#000000;stroke-width:1"
           inkscape:connector-curvature="0" />
      </g>
      <g
         style="display:inline"
         id="g2069"
         transform="translate(-680,100)">
        <path
           inkscape:connector-curvature="0"
           id="path1926"
           d="m 1440,220 -40,0 0,80 40,0 z"
           style="fill:none;stroke:#000000;stroke-width:1px;stroke-linecap:butt;stroke-linejoin:miter;stroke-opacity:1" />
        <path
           id="path2072"
           d="m 1401.5887,220 0,80 m 3,0 0,-80 m 3,0 0,80 m 3,0 0,-80 m 3,0 0,80 m 3,0 0,-80 m 3,0 0,80 m 3,0 0,-80 m 3,0 0,80 m 3,0 0,-80 m 3,0 0,80 m 3,0 0,-80 m 3,0 0,80"
           style="fill:none;stroke:#000000;stroke-width:1"
           inkscape:connector-curvature="0" />
      </g>
      <g
         style="display:inline"
         id="g2079"
         transform="translate(-680,100)">
        <path
           inkscape:connector-curvature="0"
           id="path1938"
           d="m 1760,420 0,80 40,0 0,-80 z"
           style="fill:none;stroke:#000000;stroke-width:1px;stroke-linecap:butt;stroke-linejoin:miter;stroke-opacity:1" />
        <path
           id="path2082"
           d="m 1761.5887,420 0,80 m 3,0 0,-80 m 3,0 0,80 m 3,0 0,-80 m 3,0 0,80 m 3,0 0,-80 m 3,0 0,80 m 3,0 0,-80 m 3,0 0,80 m 3,0 0,-80 m 3,0 0,80 m 3,0 0,-80 m 3,0 0,80"
           style="fill:none;stroke:#000000;stroke-width:1"
           inkscape:connector-curvature="0" />
      </g>
      <g
         style="display:inline"
         id="g2084"
         transform="translate(-680.5887,100)">
        <path
           inkscape:connector-curvature="0"
           id="path1930"
           d="m 1400,420 0,80 40,0 0,-80 z"
           style="fill:none;stroke:#000000;stroke-width:1px;stroke-linecap:butt;stroke-linejoin:miter;stroke-opacity:1" />
        <path
           id="path2087"
           d="m 1401.5887,420 0,80 m 3,0 0,-80 m 3,0 0,80 m 3,0 0,-80 m 3,0 0,80 m 3,0 0,-80 m 3,0 0,80 m 3,0 0,-80 m 3,0 0,80 m 3,0 0,-80 m 3,0 0,80 m 3,0 0,-80 m 3,0 0,80"
           style="fill:none;stroke:#000000;stroke-width:1"
           inkscape:connector-curvature="0" />
      </g>
      <g
         style="display:inline"
         id="g2089"
         transform="translate(-680,100)">
        <path
           inkscape:connector-curvature="0"
           id="path1932"
           d="m 1440,500 0,40 80,0 0,-40 z"
           style="fill:none;stroke:#000000;stroke-width:1px;stroke-linecap:butt;stroke-linejoin:miter;stroke-opacity:1" />
        <path
           id="path2092"
           d="m 1440.5887,500 0,40 m 3,0 0,-40 m 3,0 0,40 m 3,0 0,-40 m 3,0 0,40 m 3,0 0,-40 m 3,0 0,40 m 3,0 0,-40 m 3,0 0,40 m 3,0 0,-40 m 3,0 0,40 m 3,0 0,-40 m 3,0 0,40 m 3,0 0,-40 m 3,0 0,40 m 3,0 0,-40 m 3,0 0,40 m 3,0 0,-40 m 3,0 0,40 m 3,0 0,-40 m 3,0 0,40 m 3,0 0,-40 m 3,0 0,40 m 3,0 0,-40 m 3,0 0,40 m 3,0 0,-40 m 3,0 0,40"
           style="fill:none;stroke:#000000;stroke-width:1"
           inkscape:connector-curvature="0" />
      </g>
      <g
         style="display:inline"
         id="g2094"
         transform="translate(-680,100)">
        <path
           inkscape:connector-curvature="0"
           id="path1934"
           d="m 1520,540 0,40 160,0 0,-40 z"
           style="fill:none;stroke:#000000;stroke-width:1px;stroke-linecap:butt;stroke-linejoin:miter;stroke-opacity:1" />
        <path
           id="path2097"
           d="m 1521.5887,540 0,40 m 3,0 0,-40 m 3,0 0,40 m 3,0 0,-40 m 3,0 0,40 m 3,0 0,-40 m 3,0 0,40 m 3,0 0,-40 m 3,0 0,40 m 3,0 0,-40 m 3,0 0,40 m 3,0 0,-40 m 3,0 0,40 m 3,0 0,-40 m 3,0 0,40 m 3,0 0,-40 m 3,0 0,40 m 3,0 0,-40 m 3,0 0,40 m 3,0 0,-40 m 3,0 0,40 m 3,0 0,-40 m 3,0 0,40 m 3,0 0,-40 m 3,0 0,40 m 3,0 0,-40 m 3,0 0,40 m 3,0 0,-40 m 3,0 0,40 m 3,0 0,-40 m 3,0 0,40 m 3,0 0,-40 m 3,0 0,40 m 3,0 0,-40 m 3,0 0,40 m 3,0 0,-40 m 3,0 0,40 m 3,0 0,-40 m 3,0 0,40 m 3,0 0,-40 m 3,0 0,40 m 3,0 0,-40 m 3,0 0,40 m 3,0 0,-40 m 3,0 0,40 m 3,0 0,-40 m 3,0 0,40 m 3,0 0,-40 m 3,0 0,40 m 3,0 0,-40 m 3,0 0,40 m 3,0 0,-40 m 3,0 0,40"
           style="fill:none;stroke:#000000;stroke-width:1"
           inkscape:connector-curvature="0" />
      </g>
      <g
         style="display:inline"
         id="g2099"
         transform="translate(-680,100)">
        <path
           inkscape:connector-curvature="0"
           id="path1936"
           d="m 1680,500 0,40 80,0 0,-40 z"
           style="fill:none;stroke:#000000;stroke-width:1px;stroke-linecap:butt;stroke-linejoin:miter;stroke-opacity:1" />
        <path
           id="path2102"
           d="m 1680.5887,500 0,40 m 3,0 0,-40 m 3,0 0,40 m 3,0 0,-40 m 3,0 0,40 m 3,0 0,-40 m 3,0 0,40 m 3,0 0,-40 m 3,0 0,40 m 3,0 0,-40 m 3,0 0,40 m 3,0 0,-40 m 3,0 0,40 m 3,0 0,-40 m 3,0 0,40 m 3,0 0,-40 m 3,0 0,40 m 3,0 0,-40 m 3,0 0,40 m 3,0 0,-40 m 3,0 0,40 m 3,0 0,-40 m 3,0 0,40 m 3,0 0,-40 m 3,0 0,40 m 3,0 0,-40 m 3,0 0,40"
           style="fill:none;stroke:#000000;stroke-width:1"
           inkscape:connector-curvature="0" />
      </g>
      <g
         style="display:inline"
         id="g2104"
         transform="translate(-680,100)">
        <path
           inkscape:connector-curvature="0"
           id="path1940"
           d="m 1800,420 40,0 0,-120 -40,0 z"
           style="fill:none;stroke:#000000;stroke-width:1px;stroke-linecap:butt;stroke-linejoin:miter;stroke-opacity:1" />
        <path
           id="path2107"
           d="m 1800.5887,300 0,120 m 3,0 0,-120 m 3,0 0,120 m 3,0 0,-120 m 3,0 0,120 m 3,0 0,-120 m 3,0 0,120 m 3,0 0,-120 m 3,0 0,120 m 3,0 0,-120 m 3,0 0,120 m 3,0 0,-120 m 3,0 0,120 m 3,0 0,-120"
           style="fill:none;stroke:#000000;stroke-width:1"
           inkscape:connector-curvature="0" />
      </g>
      <g
         style="display:inline"
         id="g2044"
         transform="translate(-680,100)">
        <path
           inkscape:connector-curvature="0"
           id="path1928"
           d="m 1400,300 -40,0 0,120 40,0 z"
           style="fill:none;stroke:#000000;stroke-width:1px;stroke-linecap:butt;stroke-linejoin:miter;stroke-opacity:1" />
        <path
           id="path2047"
           d="m 1362.5887,300 0,120 m 3,0 0,-120 m 3,0 0,120 m 3,0 0,-120 m 3,0 0,120 m 3,0 0,-120 m 3,0 0,120 m 3,0 0,-120 m 3,0 0,120 m 3,0 0,-120 m 3,0 0,120 m 3,0 0,-120 m 3,0 0,120"
           style="fill:none;stroke:#000000;stroke-width:1"
           inkscape:connector-curvature="0" />
      </g>
      <g
         style="display:inline"
         id="g2054"
         transform="translate(-680,100)">
        <path
           inkscape:connector-curvature="0"
           id="path1922"
           d="m 1480,100 0,40 80,0 0,-40 z"
           style="fill:none;stroke:#000000;stroke-width:1px;stroke-linecap:butt;stroke-linejoin:miter;stroke-opacity:1" />
        <path
           id="path2057"
           d="m 1482.5887,100 0,40 m 3,0 0,-40 m 3,0 0,40 m 3,0 0,-40 m 3,0 0,40 m 3,0 0,-40 m 3,0 0,40 m 3,0 0,-40 m 3,0 0,40 m 3,0 0,-40 m 3,0 0,40 m 3,0 0,-40 m 3,0 0,40 m 3,0 0,-40 m 3,0 0,40 m 3,0 0,-40 m 3,0 0,40 m 3,0 0,-40 m 3,0 0,40 m 3,0 0,-40 m 3,0 0,40 m 3,0 0,-40 m 3,0 0,40 m 3,0 0,-40 m 3,0 0,40 m 3,0 0,-40"
           style="fill:none;stroke:#000000;stroke-width:1"
           inkscape:connector-curvature="0" />
      </g>
      <g
         style="display:inline"
         id="g2074"
         transform="translate(-680,100)">
        <path
           inkscape:connector-curvature="0"
           id="path1946"
           d="m 1720,140 -80,0 0,-40 80,0 z"
           style="fill:none;stroke:#000000;stroke-width:1px;stroke-linecap:butt;stroke-linejoin:miter;stroke-opacity:1" />
        <path
           id="path2077"
           d="m 1641.5887,100 0,40 m 3,0 0,-40 m 3,0 0,40 m 3,0 0,-40 m 3,0 0,40 m 3,0 0,-40 m 3,0 0,40 m 3,0 0,-40 m 3,0 0,40 m 3,0 0,-40 m 3,0 0,40 m 3,0 0,-40 m 3,0 0,40 m 3,0 0,-40 m 3,0 0,40 m 3,0 0,-40 m 3,0 0,40 m 3,0 0,-40 m 3,0 0,40 m 3,0 0,-40 m 3,0 0,40 m 3,0 0,-40 m 3,0 0,40 m 3,0 0,-40 m 3,0 0,40 m 3,0 0,-40 m 3,0 0,40"
           style="fill:none;stroke:#000000;stroke-width:1"
           inkscape:connector-curvature="0" />
      </g>
    </g>
    <g
       id="g7156"
       transform="matrix(1.3846154,0,0,0.83076924,-186.5385,48.35385)">
      <g
         transform="translate(-680,-152.36218)"
         id="g7158"
         style="display:inline">
        <path
           style="fill:none;stroke:#000000;stroke-width:1px;stroke-linecap:butt;stroke-linejoin:miter;stroke-opacity:1"
           d="m 1560,60 0,40 80,0 0,-40 z"
           id="path7160"
           inkscape:connector-curvature="0"
           transform="translate(0,252.36218)" />
        <path
           inkscape:connector-curvature="0"
           style="fill:none;stroke:#000000;stroke-width:1"
           d="m 1560.5887,60 0,40 m 3,0 0,-40 m 3,0 0,40 m 3,0 0,-40 m 3,0 0,40 m 3,0 0,-40 m 3,0 0,40 m 3,0 0,-40 m 3,0 0,40 m 3,0 0,-40 m 3,0 0,40 m 3,0 0,-40 m 3,0 0,40 m 3,0 0,-40 m 3,0 0,40 m 3,0 0,-40 m 3,0 0,40 m 3,0 0,-40 m 3,0 0,40 m 3,0 0,-40 m 3,0 0,40 m 3,0 0,-40 m 3,0 0,40 m 3,0 0,-40 m 3,0 0,40 m 3,0 0,-40 m 3,0 0,40"
           transform="translate(0,252.36218)"
           id="path7162" />
      </g>
      <g
         transform="translate(-680,100)"
         id="g7164"
         style="display:inline">
        <path
           style="fill:none;stroke:#000000;stroke-width:1px;stroke-linecap:butt;stroke-linejoin:miter;stroke-opacity:1"
           d="m 1480,140 -40,0 0,80 40,0 z"
           id="path7166"
           inkscape:connector-curvature="0" />
        <path
           inkscape:connector-curvature="0"
           style="fill:none;stroke:#000000;stroke-width:1"
           d="m 1440.5887,140 0,80 m 3,0 0,-80 m 3,0 0,80 m 3,0 0,-80 m 3,0 0,80 m 3,0 0,-80 m 3,0 0,80 m 3,0 0,-80 m 3,0 0,80 m 3,0 0,-80 m 3,0 0,80 m 3,0 0,-80 m 3,0 0,80 m 3,0 0,-80"
           id="path7168" />
      </g>
      <g
         transform="translate(-680,100)"
         id="g7170"
         style="display:inline">
        <path
           style="fill:none;stroke:#000000;stroke-width:1px;stroke-linecap:butt;stroke-linejoin:miter;stroke-opacity:1"
           d="m 1760,220 -40,0 0,-80 40,0 z"
           id="path7172"
           inkscape:connector-curvature="0" />
        <path
           inkscape:connector-curvature="0"
           style="fill:none;stroke:#000000;stroke-width:1"
           d="m 1722.5887,140 0,80 m 3,0 0,-80 m 3,0 0,80 m 3,0 0,-80 m 3,0 0,80 m 3,0 0,-80 m 3,0 0,80 m 3,0 0,-80 m 3,0 0,80 m 3,0 0,-80 m 3,0 0,80 m 3,0 0,-80 m 3,0 0,80"
           id="path7174" />
      </g>
      <g
         transform="translate(-680,100)"
         id="g7176"
         style="display:inline">
        <path
           style="fill:none;stroke:#000000;stroke-width:1px;stroke-linecap:butt;stroke-linejoin:miter;stroke-opacity:1"
           d="m 1800,300 -40,0 0,-80 40,0 z"
           id="path7178"
           inkscape:connector-curvature="0" />
        <path
           inkscape:connector-curvature="0"
           style="fill:none;stroke:#000000;stroke-width:1"
           d="m 1761.5887,220 0,80 m 3,0 0,-80 m 3,0 0,80 m 3,0 0,-80 m 3,0 0,80 m 3,0 0,-80 m 3,0 0,80 m 3,0 0,-80 m 3,0 0,80 m 3,0 0,-80 m 3,0 0,80 m 3,0 0,-80 m 3,0 0,80"
           id="path7180" />
      </g>
      <g
         transform="translate(-680,100)"
         id="g7182"
         style="display:inline">
        <path
           style="fill:none;stroke:#000000;stroke-width:1px;stroke-linecap:butt;stroke-linejoin:miter;stroke-opacity:1"
           d="m 1440,220 -40,0 0,80 40,0 z"
           id="path7184"
           inkscape:connector-curvature="0" />
        <path
           inkscape:connector-curvature="0"
           style="fill:none;stroke:#000000;stroke-width:1"
           d="m 1401.5887,220 0,80 m 3,0 0,-80 m 3,0 0,80 m 3,0 0,-80 m 3,0 0,80 m 3,0 0,-80 m 3,0 0,80 m 3,0 0,-80 m 3,0 0,80 m 3,0 0,-80 m 3,0 0,80 m 3,0 0,-80 m 3,0 0,80"
           id="path7186" />
      </g>
      <g
         transform="translate(-680,100)"
         id="g7188"
         style="display:inline">
        <path
           style="fill:none;stroke:#000000;stroke-width:1px;stroke-linecap:butt;stroke-linejoin:miter;stroke-opacity:1"
           d="m 1760,420 0,80 40,0 0,-80 z"
           id="path7190"
           inkscape:connector-curvature="0" />
        <path
           inkscape:connector-curvature="0"
           style="fill:none;stroke:#000000;stroke-width:1"
           d="m 1761.5887,420 0,80 m 3,0 0,-80 m 3,0 0,80 m 3,0 0,-80 m 3,0 0,80 m 3,0 0,-80 m 3,0 0,80 m 3,0 0,-80 m 3,0 0,80 m 3,0 0,-80 m 3,0 0,80 m 3,0 0,-80 m 3,0 0,80"
           id="path7192" />
      </g>
      <g
         transform="translate(-680.5887,100)"
         id="g7194"
         style="display:inline">
        <path
           style="fill:none;stroke:#000000;stroke-width:1px;stroke-linecap:butt;stroke-linejoin:miter;stroke-opacity:1"
           d="m 1400,420 0,80 40,0 0,-80 z"
           id="path7196"
           inkscape:connector-curvature="0" />
        <path
           inkscape:connector-curvature="0"
           style="fill:none;stroke:#000000;stroke-width:1"
           d="m 1401.5887,420 0,80 m 3,0 0,-80 m 3,0 0,80 m 3,0 0,-80 m 3,0 0,80 m 3,0 0,-80 m 3,0 0,80 m 3,0 0,-80 m 3,0 0,80 m 3,0 0,-80 m 3,0 0,80 m 3,0 0,-80 m 3,0 0,80"
           id="path7198" />
      </g>
      <g
         transform="translate(-680,100)"
         id="g7200"
         style="display:inline">
        <path
           style="fill:none;stroke:#000000;stroke-width:1px;stroke-linecap:butt;stroke-linejoin:miter;stroke-opacity:1"
           d="m 1440,500 0,40 80,0 0,-40 z"
           id="path7202"
           inkscape:connector-curvature="0" />
        <path
           inkscape:connector-curvature="0"
           style="fill:none;stroke:#000000;stroke-width:1"
           d="m 1440.5887,500 0,40 m 3,0 0,-40 m 3,0 0,40 m 3,0 0,-40 m 3,0 0,40 m 3,0 0,-40 m 3,0 0,40 m 3,0 0,-40 m 3,0 0,40 m 3,0 0,-40 m 3,0 0,40 m 3,0 0,-40 m 3,0 0,40 m 3,0 0,-40 m 3,0 0,40 m 3,0 0,-40 m 3,0 0,40 m 3,0 0,-40 m 3,0 0,40 m 3,0 0,-40 m 3,0 0,40 m 3,0 0,-40 m 3,0 0,40 m 3,0 0,-40 m 3,0 0,40 m 3,0 0,-40 m 3,0 0,40"
           id="path7204" />
      </g>
      <g
         transform="translate(-680,100)"
         id="g7206"
         style="display:inline">
        <path
           style="fill:none;stroke:#000000;stroke-width:1px;stroke-linecap:butt;stroke-linejoin:miter;stroke-opacity:1"
           d="m 1520,540 0,40 160,0 0,-40 z"
           id="path7208"
           inkscape:connector-curvature="0" />
        <path
           inkscape:connector-curvature="0"
           style="fill:none;stroke:#000000;stroke-width:1"
           d="m 1521.5887,540 0,40 m 3,0 0,-40 m 3,0 0,40 m 3,0 0,-40 m 3,0 0,40 m 3,0 0,-40 m 3,0 0,40 m 3,0 0,-40 m 3,0 0,40 m 3,0 0,-40 m 3,0 0,40 m 3,0 0,-40 m 3,0 0,40 m 3,0 0,-40 m 3,0 0,40 m 3,0 0,-40 m 3,0 0,40 m 3,0 0,-40 m 3,0 0,40 m 3,0 0,-40 m 3,0 0,40 m 3,0 0,-40 m 3,0 0,40 m 3,0 0,-40 m 3,0 0,40 m 3,0 0,-40 m 3,0 0,40 m 3,0 0,-40 m 3,0 0,40 m 3,0 0,-40 m 3,0 0,40 m 3,0 0,-40 m 3,0 0,40 m 3,0 0,-40 m 3,0 0,40 m 3,0 0,-40 m 3,0 0,40 m 3,0 0,-40 m 3,0 0,40 m 3,0 0,-40 m 3,0 0,40 m 3,0 0,-40 m 3,0 0,40 m 3,0 0,-40 m 3,0 0,40 m 3,0 0,-40 m 3,0 0,40 m 3,0 0,-40 m 3,0 0,40 m 3,0 0,-40 m 3,0 0,40 m 3,0 0,-40 m 3,0 0,40"
           id="path7210" />
      </g>
      <g
         transform="translate(-680,100)"
         id="g7212"
         style="display:inline">
        <path
           style="fill:none;stroke:#000000;stroke-width:1px;stroke-linecap:butt;stroke-linejoin:miter;stroke-opacity:1"
           d="m 1680,500 0,40 80,0 0,-40 z"
           id="path7214"
           inkscape:connector-curvature="0" />
        <path
           inkscape:connector-curvature="0"
           style="fill:none;stroke:#000000;stroke-width:1"
           d="m 1680.5887,500 0,40 m 3,0 0,-40 m 3,0 0,40 m 3,0 0,-40 m 3,0 0,40 m 3,0 0,-40 m 3,0 0,40 m 3,0 0,-40 m 3,0 0,40 m 3,0 0,-40 m 3,0 0,40 m 3,0 0,-40 m 3,0 0,40 m 3,0 0,-40 m 3,0 0,40 m 3,0 0,-40 m 3,0 0,40 m 3,0 0,-40 m 3,0 0,40 m 3,0 0,-40 m 3,0 0,40 m 3,0 0,-40 m 3,0 0,40 m 3,0 0,-40 m 3,0 0,40 m 3,0 0,-40 m 3,0 0,40"
           id="path7216" />
      </g>
      <g
         transform="translate(-680,100)"
         id="g7218"
         style="display:inline">
        <path
           style="fill:none;stroke:#000000;stroke-width:1px;stroke-linecap:butt;stroke-linejoin:miter;stroke-opacity:1"
           d="m 1800,420 40,0 0,-120 -40,0 z"
           id="path7220"
           inkscape:connector-curvature="0" />
        <path
           inkscape:connector-curvature="0"
           style="fill:none;stroke:#000000;stroke-width:1"
           d="m 1800.5887,300 0,120 m 3,0 0,-120 m 3,0 0,120 m 3,0 0,-120 m 3,0 0,120 m 3,0 0,-120 m 3,0 0,120 m 3,0 0,-120 m 3,0 0,120 m 3,0 0,-120 m 3,0 0,120 m 3,0 0,-120 m 3,0 0,120 m 3,0 0,-120"
           id="path7222" />
      </g>
      <g
         transform="translate(-680,100)"
         id="g7224"
         style="display:inline">
        <path
           style="fill:none;stroke:#000000;stroke-width:1px;stroke-linecap:butt;stroke-linejoin:miter;stroke-opacity:1"
           d="m 1400,300 -40,0 0,120 40,0 z"
           id="path7226"
           inkscape:connector-curvature="0" />
        <path
           inkscape:connector-curvature="0"
           style="fill:none;stroke:#000000;stroke-width:1"
           d="m 1362.5887,300 0,120 m 3,0 0,-120 m 3,0 0,120 m 3,0 0,-120 m 3,0 0,120 m 3,0 0,-120 m 3,0 0,120 m 3,0 0,-120 m 3,0 0,120 m 3,0 0,-120 m 3,0 0,120 m 3,0 0,-120 m 3,0 0,120"
           id="path7228" />
      </g>
      <g
         transform="translate(-680,100)"
         id="g7230"
         style="display:inline">
        <path
           style="fill:none;stroke:#000000;stroke-width:1px;stroke-linecap:butt;stroke-linejoin:miter;stroke-opacity:1"
           d="m 1480,100 0,40 80,0 0,-40 z"
           id="path7232"
           inkscape:connector-curvature="0" />
        <path
           inkscape:connector-curvature="0"
           style="fill:none;stroke:#000000;stroke-width:1"
           d="m 1482.5887,100 0,40 m 3,0 0,-40 m 3,0 0,40 m 3,0 0,-40 m 3,0 0,40 m 3,0 0,-40 m 3,0 0,40 m 3,0 0,-40 m 3,0 0,40 m 3,0 0,-40 m 3,0 0,40 m 3,0 0,-40 m 3,0 0,40 m 3,0 0,-40 m 3,0 0,40 m 3,0 0,-40 m 3,0 0,40 m 3,0 0,-40 m 3,0 0,40 m 3,0 0,-40 m 3,0 0,40 m 3,0 0,-40 m 3,0 0,40 m 3,0 0,-40 m 3,0 0,40 m 3,0 0,-40"
           id="path7234" />
      </g>
      <g
         transform="translate(-680,100)"
         id="g7236"
         style="display:inline">
        <path
           style="fill:none;stroke:#000000;stroke-width:1px;stroke-linecap:butt;stroke-linejoin:miter;stroke-opacity:1"
           d="m 1720,140 -80,0 0,-40 80,0 z"
           id="path7238"
           inkscape:connector-curvature="0" />
        <path
           inkscape:connector-curvature="0"
           style="fill:none;stroke:#000000;stroke-width:1"
           d="m 1641.5887,100 0,40 m 3,0 0,-40 m 3,0 0,40 m 3,0 0,-40 m 3,0 0,40 m 3,0 0,-40 m 3,0 0,40 m 3,0 0,-40 m 3,0 0,40 m 3,0 0,-40 m 3,0 0,40 m 3,0 0,-40 m 3,0 0,40 m 3,0 0,-40 m 3,0 0,40 m 3,0 0,-40 m 3,0 0,40 m 3,0 0,-40 m 3,0 0,40 m 3,0 0,-40 m 3,0 0,40 m 3,0 0,-40 m 3,0 0,40 m 3,0 0,-40 m 3,0 0,40 m 3,0 0,-40 m 3,0 0,40"
           id="path7240" />
      </g>
    </g>
    <g
       id="g7288"
       transform="matrix(1.3846154,0,0,0.83076924,698.46153,45.35385)">
      <g
         transform="translate(-680,-152.36218)"
         id="g7290"
         style="display:inline">
        <path
           style="fill:none;stroke:#000000;stroke-width:1px;stroke-linecap:butt;stroke-linejoin:miter;stroke-opacity:1"
           d="m 1560,60 0,40 80,0 0,-40 z"
           id="path7292"
           inkscape:connector-curvature="0"
           transform="translate(0,252.36218)" />
        <path
           inkscape:connector-curvature="0"
           style="fill:none;stroke:#000000;stroke-width:1"
           d="m 1560.5887,60 0,40 m 3,0 0,-40 m 3,0 0,40 m 3,0 0,-40 m 3,0 0,40 m 3,0 0,-40 m 3,0 0,40 m 3,0 0,-40 m 3,0 0,40 m 3,0 0,-40 m 3,0 0,40 m 3,0 0,-40 m 3,0 0,40 m 3,0 0,-40 m 3,0 0,40 m 3,0 0,-40 m 3,0 0,40 m 3,0 0,-40 m 3,0 0,40 m 3,0 0,-40 m 3,0 0,40 m 3,0 0,-40 m 3,0 0,40 m 3,0 0,-40 m 3,0 0,40 m 3,0 0,-40 m 3,0 0,40"
           transform="translate(0,252.36218)"
           id="path7294" />
      </g>
      <g
         transform="translate(-680,100)"
         id="g7296"
         style="display:inline">
        <path
           style="fill:none;stroke:#000000;stroke-width:1px;stroke-linecap:butt;stroke-linejoin:miter;stroke-opacity:1"
           d="m 1480,140 -40,0 0,80 40,0 z"
           id="path7298"
           inkscape:connector-curvature="0" />
        <path
           inkscape:connector-curvature="0"
           style="fill:none;stroke:#000000;stroke-width:1"
           d="m 1440.5887,140 0,80 m 3,0 0,-80 m 3,0 0,80 m 3,0 0,-80 m 3,0 0,80 m 3,0 0,-80 m 3,0 0,80 m 3,0 0,-80 m 3,0 0,80 m 3,0 0,-80 m 3,0 0,80 m 3,0 0,-80 m 3,0 0,80 m 3,0 0,-80"
           id="path7300" />
      </g>
      <g
         transform="translate(-680,100)"
         id="g7302"
         style="display:inline">
        <path
           style="fill:none;stroke:#000000;stroke-width:1px;stroke-linecap:butt;stroke-linejoin:miter;stroke-opacity:1"
           d="m 1760,220 -40,0 0,-80 40,0 z"
           id="path7304"
           inkscape:connector-curvature="0" />
        <path
           inkscape:connector-curvature="0"
           style="fill:none;stroke:#000000;stroke-width:1"
           d="m 1722.5887,140 0,80 m 3,0 0,-80 m 3,0 0,80 m 3,0 0,-80 m 3,0 0,80 m 3,0 0,-80 m 3,0 0,80 m 3,0 0,-80 m 3,0 0,80 m 3,0 0,-80 m 3,0 0,80 m 3,0 0,-80 m 3,0 0,80"
           id="path7306" />
      </g>
      <g
         transform="translate(-680,100)"
         id="g7308"
         style="display:inline">
        <path
           style="fill:none;stroke:#000000;stroke-width:1px;stroke-linecap:butt;stroke-linejoin:miter;stroke-opacity:1"
           d="m 1800,300 -40,0 0,-80 40,0 z"
           id="path7310"
           inkscape:connector-curvature="0" />
        <path
           inkscape:connector-curvature="0"
           style="fill:none;stroke:#000000;stroke-width:1"
           d="m 1761.5887,220 0,80 m 3,0 0,-80 m 3,0 0,80 m 3,0 0,-80 m 3,0 0,80 m 3,0 0,-80 m 3,0 0,80 m 3,0 0,-80 m 3,0 0,80 m 3,0 0,-80 m 3,0 0,80 m 3,0 0,-80 m 3,0 0,80"
           id="path7312" />
      </g>
      <g
         transform="translate(-680,100)"
         id="g7314"
         style="display:inline">
        <path
           style="fill:none;stroke:#000000;stroke-width:1px;stroke-linecap:butt;stroke-linejoin:miter;stroke-opacity:1"
           d="m 1440,220 -40,0 0,80 40,0 z"
           id="path7316"
           inkscape:connector-curvature="0" />
        <path
           inkscape:connector-curvature="0"
           style="fill:none;stroke:#000000;stroke-width:1"
           d="m 1401.5887,220 0,80 m 3,0 0,-80 m 3,0 0,80 m 3,0 0,-80 m 3,0 0,80 m 3,0 0,-80 m 3,0 0,80 m 3,0 0,-80 m 3,0 0,80 m 3,0 0,-80 m 3,0 0,80 m 3,0 0,-80 m 3,0 0,80"
           id="path7318" />
      </g>
      <g
         transform="translate(-680,100)"
         id="g7320"
         style="display:inline">
        <path
           style="fill:none;stroke:#000000;stroke-width:1px;stroke-linecap:butt;stroke-linejoin:miter;stroke-opacity:1"
           d="m 1760,420 0,80 40,0 0,-80 z"
           id="path7322"
           inkscape:connector-curvature="0" />
        <path
           inkscape:connector-curvature="0"
           style="fill:none;stroke:#000000;stroke-width:1"
           d="m 1761.5887,420 0,80 m 3,0 0,-80 m 3,0 0,80 m 3,0 0,-80 m 3,0 0,80 m 3,0 0,-80 m 3,0 0,80 m 3,0 0,-80 m 3,0 0,80 m 3,0 0,-80 m 3,0 0,80 m 3,0 0,-80 m 3,0 0,80"
           id="path7324" />
      </g>
      <g
         transform="translate(-680.5887,100)"
         id="g7326"
         style="display:inline">
        <path
           style="fill:none;stroke:#000000;stroke-width:1px;stroke-linecap:butt;stroke-linejoin:miter;stroke-opacity:1"
           d="m 1400,420 0,80 40,0 0,-80 z"
           id="path7328"
           inkscape:connector-curvature="0" />
        <path
           inkscape:connector-curvature="0"
           style="fill:none;stroke:#000000;stroke-width:1"
           d="m 1401.5887,420 0,80 m 3,0 0,-80 m 3,0 0,80 m 3,0 0,-80 m 3,0 0,80 m 3,0 0,-80 m 3,0 0,80 m 3,0 0,-80 m 3,0 0,80 m 3,0 0,-80 m 3,0 0,80 m 3,0 0,-80 m 3,0 0,80"
           id="path7330" />
      </g>
      <g
         transform="translate(-680,100)"
         id="g7332"
         style="display:inline">
        <path
           style="fill:none;stroke:#000000;stroke-width:1px;stroke-linecap:butt;stroke-linejoin:miter;stroke-opacity:1"
           d="m 1440,500 0,40 80,0 0,-40 z"
           id="path7334"
           inkscape:connector-curvature="0" />
        <path
           inkscape:connector-curvature="0"
           style="fill:none;stroke:#000000;stroke-width:1"
           d="m 1440.5887,500 0,40 m 3,0 0,-40 m 3,0 0,40 m 3,0 0,-40 m 3,0 0,40 m 3,0 0,-40 m 3,0 0,40 m 3,0 0,-40 m 3,0 0,40 m 3,0 0,-40 m 3,0 0,40 m 3,0 0,-40 m 3,0 0,40 m 3,0 0,-40 m 3,0 0,40 m 3,0 0,-40 m 3,0 0,40 m 3,0 0,-40 m 3,0 0,40 m 3,0 0,-40 m 3,0 0,40 m 3,0 0,-40 m 3,0 0,40 m 3,0 0,-40 m 3,0 0,40 m 3,0 0,-40 m 3,0 0,40"
           id="path7336" />
      </g>
      <g
         transform="translate(-680,100)"
         id="g7338"
         style="display:inline">
        <path
           style="fill:none;stroke:#000000;stroke-width:1px;stroke-linecap:butt;stroke-linejoin:miter;stroke-opacity:1"
           d="m 1520,540 0,40 160,0 0,-40 z"
           id="path7340"
           inkscape:connector-curvature="0" />
        <path
           inkscape:connector-curvature="0"
           style="fill:none;stroke:#000000;stroke-width:1"
           d="m 1521.5887,540 0,40 m 3,0 0,-40 m 3,0 0,40 m 3,0 0,-40 m 3,0 0,40 m 3,0 0,-40 m 3,0 0,40 m 3,0 0,-40 m 3,0 0,40 m 3,0 0,-40 m 3,0 0,40 m 3,0 0,-40 m 3,0 0,40 m 3,0 0,-40 m 3,0 0,40 m 3,0 0,-40 m 3,0 0,40 m 3,0 0,-40 m 3,0 0,40 m 3,0 0,-40 m 3,0 0,40 m 3,0 0,-40 m 3,0 0,40 m 3,0 0,-40 m 3,0 0,40 m 3,0 0,-40 m 3,0 0,40 m 3,0 0,-40 m 3,0 0,40 m 3,0 0,-40 m 3,0 0,40 m 3,0 0,-40 m 3,0 0,40 m 3,0 0,-40 m 3,0 0,40 m 3,0 0,-40 m 3,0 0,40 m 3,0 0,-40 m 3,0 0,40 m 3,0 0,-40 m 3,0 0,40 m 3,0 0,-40 m 3,0 0,40 m 3,0 0,-40 m 3,0 0,40 m 3,0 0,-40 m 3,0 0,40 m 3,0 0,-40 m 3,0 0,40 m 3,0 0,-40 m 3,0 0,40 m 3,0 0,-40 m 3,0 0,40"
           id="path7342" />
      </g>
      <g
         transform="translate(-680,100)"
         id="g7344"
         style="display:inline">
        <path
           style="fill:none;stroke:#000000;stroke-width:1px;stroke-linecap:butt;stroke-linejoin:miter;stroke-opacity:1"
           d="m 1680,500 0,40 80,0 0,-40 z"
           id="path7346"
           inkscape:connector-curvature="0" />
        <path
           inkscape:connector-curvature="0"
           style="fill:none;stroke:#000000;stroke-width:1"
           d="m 1680.5887,500 0,40 m 3,0 0,-40 m 3,0 0,40 m 3,0 0,-40 m 3,0 0,40 m 3,0 0,-40 m 3,0 0,40 m 3,0 0,-40 m 3,0 0,40 m 3,0 0,-40 m 3,0 0,40 m 3,0 0,-40 m 3,0 0,40 m 3,0 0,-40 m 3,0 0,40 m 3,0 0,-40 m 3,0 0,40 m 3,0 0,-40 m 3,0 0,40 m 3,0 0,-40 m 3,0 0,40 m 3,0 0,-40 m 3,0 0,40 m 3,0 0,-40 m 3,0 0,40 m 3,0 0,-40 m 3,0 0,40"
           id="path7348" />
      </g>
      <g
         transform="translate(-680,100)"
         id="g7350"
         style="display:inline">
        <path
           style="fill:none;stroke:#000000;stroke-width:1px;stroke-linecap:butt;stroke-linejoin:miter;stroke-opacity:1"
           d="m 1800,420 40,0 0,-120 -40,0 z"
           id="path7352"
           inkscape:connector-curvature="0" />
        <path
           inkscape:connector-curvature="0"
           style="fill:none;stroke:#000000;stroke-width:1"
           d="m 1800.5887,300 0,120 m 3,0 0,-120 m 3,0 0,120 m 3,0 0,-120 m 3,0 0,120 m 3,0 0,-120 m 3,0 0,120 m 3,0 0,-120 m 3,0 0,120 m 3,0 0,-120 m 3,0 0,120 m 3,0 0,-120 m 3,0 0,120 m 3,0 0,-120"
           id="path7354" />
      </g>
      <g
         transform="translate(-680,100)"
         id="g7356"
         style="display:inline">
        <path
           style="fill:none;stroke:#000000;stroke-width:1px;stroke-linecap:butt;stroke-linejoin:miter;stroke-opacity:1"
           d="m 1400,300 -40,0 0,120 40,0 z"
           id="path7358"
           inkscape:connector-curvature="0" />
        <path
           inkscape:connector-curvature="0"
           style="fill:none;stroke:#000000;stroke-width:1"
           d="m 1362.5887,300 0,120 m 3,0 0,-120 m 3,0 0,120 m 3,0 0,-120 m 3,0 0,120 m 3,0 0,-120 m 3,0 0,120 m 3,0 0,-120 m 3,0 0,120 m 3,0 0,-120 m 3,0 0,120 m 3,0 0,-120 m 3,0 0,120"
           id="path7360" />
      </g>
      <g
         transform="translate(-680,100)"
         id="g7362"
         style="display:inline">
        <path
           style="fill:none;stroke:#000000;stroke-width:1px;stroke-linecap:butt;stroke-linejoin:miter;stroke-opacity:1"
           d="m 1480,100 0,40 80,0 0,-40 z"
           id="path7364"
           inkscape:connector-curvature="0" />
        <path
           inkscape:connector-curvature="0"
           style="fill:none;stroke:#000000;stroke-width:1"
           d="m 1482.5887,100 0,40 m 3,0 0,-40 m 3,0 0,40 m 3,0 0,-40 m 3,0 0,40 m 3,0 0,-40 m 3,0 0,40 m 3,0 0,-40 m 3,0 0,40 m 3,0 0,-40 m 3,0 0,40 m 3,0 0,-40 m 3,0 0,40 m 3,0 0,-40 m 3,0 0,40 m 3,0 0,-40 m 3,0 0,40 m 3,0 0,-40 m 3,0 0,40 m 3,0 0,-40 m 3,0 0,40 m 3,0 0,-40 m 3,0 0,40 m 3,0 0,-40 m 3,0 0,40 m 3,0 0,-40"
           id="path7366" />
      </g>
      <g
         transform="translate(-680,100)"
         id="g7368"
         style="display:inline">
        <path
           style="fill:none;stroke:#000000;stroke-width:1px;stroke-linecap:butt;stroke-linejoin:miter;stroke-opacity:1"
           d="m 1720,140 -80,0 0,-40 80,0 z"
           id="path7370"
           inkscape:connector-curvature="0" />
        <path
           inkscape:connector-curvature="0"
           style="fill:none;stroke:#000000;stroke-width:1"
           d="m 1641.5887,100 0,40 m 3,0 0,-40 m 3,0 0,40 m 3,0 0,-40 m 3,0 0,40 m 3,0 0,-40 m 3,0 0,40 m 3,0 0,-40 m 3,0 0,40 m 3,0 0,-40 m 3,0 0,40 m 3,0 0,-40 m 3,0 0,40 m 3,0 0,-40 m 3,0 0,40 m 3,0 0,-40 m 3,0 0,40 m 3,0 0,-40 m 3,0 0,40 m 3,0 0,-40 m 3,0 0,40 m 3,0 0,-40 m 3,0 0,40 m 3,0 0,-40 m 3,0 0,40 m 3,0 0,-40 m 3,0 0,40"
           id="path7372" />
      </g>
    </g>
    <g
       transform="matrix(1.3846154,0,0,0.83076924,1413.4614,48.35385)"
       id="g7374">
      <g
         style="display:inline"
         id="g7376"
         transform="translate(-680,-152.36218)">
        <path
           transform="translate(0,252.36218)"
           inkscape:connector-curvature="0"
           id="path7378"
           d="m 1560,60 0,40 80,0 0,-40 z"
           style="fill:none;stroke:#000000;stroke-width:1px;stroke-linecap:butt;stroke-linejoin:miter;stroke-opacity:1" />
        <path
           id="path7380"
           transform="translate(0,252.36218)"
           d="m 1560.5887,60 0,40 m 3,0 0,-40 m 3,0 0,40 m 3,0 0,-40 m 3,0 0,40 m 3,0 0,-40 m 3,0 0,40 m 3,0 0,-40 m 3,0 0,40 m 3,0 0,-40 m 3,0 0,40 m 3,0 0,-40 m 3,0 0,40 m 3,0 0,-40 m 3,0 0,40 m 3,0 0,-40 m 3,0 0,40 m 3,0 0,-40 m 3,0 0,40 m 3,0 0,-40 m 3,0 0,40 m 3,0 0,-40 m 3,0 0,40 m 3,0 0,-40 m 3,0 0,40 m 3,0 0,-40 m 3,0 0,40"
           style="fill:none;stroke:#000000;stroke-width:1"
           inkscape:connector-curvature="0" />
      </g>
      <g
         style="display:inline"
         id="g7382"
         transform="translate(-680,100)">
        <path
           inkscape:connector-curvature="0"
           id="path7384"
           d="m 1480,140 -40,0 0,80 40,0 z"
           style="fill:none;stroke:#000000;stroke-width:1px;stroke-linecap:butt;stroke-linejoin:miter;stroke-opacity:1" />
        <path
           id="path7386"
           d="m 1440.5887,140 0,80 m 3,0 0,-80 m 3,0 0,80 m 3,0 0,-80 m 3,0 0,80 m 3,0 0,-80 m 3,0 0,80 m 3,0 0,-80 m 3,0 0,80 m 3,0 0,-80 m 3,0 0,80 m 3,0 0,-80 m 3,0 0,80 m 3,0 0,-80"
           style="fill:none;stroke:#000000;stroke-width:1"
           inkscape:connector-curvature="0" />
      </g>
      <g
         style="display:inline"
         id="g7388"
         transform="translate(-680,100)">
        <path
           inkscape:connector-curvature="0"
           id="path7390"
           d="m 1760,220 -40,0 0,-80 40,0 z"
           style="fill:none;stroke:#000000;stroke-width:1px;stroke-linecap:butt;stroke-linejoin:miter;stroke-opacity:1" />
        <path
           id="path7392"
           d="m 1722.5887,140 0,80 m 3,0 0,-80 m 3,0 0,80 m 3,0 0,-80 m 3,0 0,80 m 3,0 0,-80 m 3,0 0,80 m 3,0 0,-80 m 3,0 0,80 m 3,0 0,-80 m 3,0 0,80 m 3,0 0,-80 m 3,0 0,80"
           style="fill:none;stroke:#000000;stroke-width:1"
           inkscape:connector-curvature="0" />
      </g>
      <g
         style="display:inline"
         id="g7394"
         transform="translate(-680,100)">
        <path
           inkscape:connector-curvature="0"
           id="path7396"
           d="m 1800,300 -40,0 0,-80 40,0 z"
           style="fill:none;stroke:#000000;stroke-width:1px;stroke-linecap:butt;stroke-linejoin:miter;stroke-opacity:1" />
        <path
           id="path7398"
           d="m 1761.5887,220 0,80 m 3,0 0,-80 m 3,0 0,80 m 3,0 0,-80 m 3,0 0,80 m 3,0 0,-80 m 3,0 0,80 m 3,0 0,-80 m 3,0 0,80 m 3,0 0,-80 m 3,0 0,80 m 3,0 0,-80 m 3,0 0,80"
           style="fill:none;stroke:#000000;stroke-width:1"
           inkscape:connector-curvature="0" />
      </g>
      <g
         style="display:inline"
         id="g7400"
         transform="translate(-680,100)">
        <path
           inkscape:connector-curvature="0"
           id="path7402"
           d="m 1440,220 -40,0 0,80 40,0 z"
           style="fill:none;stroke:#000000;stroke-width:1px;stroke-linecap:butt;stroke-linejoin:miter;stroke-opacity:1" />
        <path
           id="path7404"
           d="m 1401.5887,220 0,80 m 3,0 0,-80 m 3,0 0,80 m 3,0 0,-80 m 3,0 0,80 m 3,0 0,-80 m 3,0 0,80 m 3,0 0,-80 m 3,0 0,80 m 3,0 0,-80 m 3,0 0,80 m 3,0 0,-80 m 3,0 0,80"
           style="fill:none;stroke:#000000;stroke-width:1"
           inkscape:connector-curvature="0" />
      </g>
      <g
         style="display:inline"
         id="g7406"
         transform="translate(-680,100)">
        <path
           inkscape:connector-curvature="0"
           id="path7408"
           d="m 1760,420 0,80 40,0 0,-80 z"
           style="fill:none;stroke:#000000;stroke-width:1px;stroke-linecap:butt;stroke-linejoin:miter;stroke-opacity:1" />
        <path
           id="path7410"
           d="m 1761.5887,420 0,80 m 3,0 0,-80 m 3,0 0,80 m 3,0 0,-80 m 3,0 0,80 m 3,0 0,-80 m 3,0 0,80 m 3,0 0,-80 m 3,0 0,80 m 3,0 0,-80 m 3,0 0,80 m 3,0 0,-80 m 3,0 0,80"
           style="fill:none;stroke:#000000;stroke-width:1"
           inkscape:connector-curvature="0" />
      </g>
      <g
         style="display:inline"
         id="g7412"
         transform="translate(-680.5887,100)">
        <path
           inkscape:connector-curvature="0"
           id="path7414"
           d="m 1400,420 0,80 40,0 0,-80 z"
           style="fill:none;stroke:#000000;stroke-width:1px;stroke-linecap:butt;stroke-linejoin:miter;stroke-opacity:1" />
        <path
           id="path7416"
           d="m 1401.5887,420 0,80 m 3,0 0,-80 m 3,0 0,80 m 3,0 0,-80 m 3,0 0,80 m 3,0 0,-80 m 3,0 0,80 m 3,0 0,-80 m 3,0 0,80 m 3,0 0,-80 m 3,0 0,80 m 3,0 0,-80 m 3,0 0,80"
           style="fill:none;stroke:#000000;stroke-width:1"
           inkscape:connector-curvature="0" />
      </g>
      <g
         style="display:inline"
         id="g7418"
         transform="translate(-680,100)">
        <path
           inkscape:connector-curvature="0"
           id="path7420"
           d="m 1440,500 0,40 80,0 0,-40 z"
           style="fill:none;stroke:#000000;stroke-width:1px;stroke-linecap:butt;stroke-linejoin:miter;stroke-opacity:1" />
        <path
           id="path7422"
           d="m 1440.5887,500 0,40 m 3,0 0,-40 m 3,0 0,40 m 3,0 0,-40 m 3,0 0,40 m 3,0 0,-40 m 3,0 0,40 m 3,0 0,-40 m 3,0 0,40 m 3,0 0,-40 m 3,0 0,40 m 3,0 0,-40 m 3,0 0,40 m 3,0 0,-40 m 3,0 0,40 m 3,0 0,-40 m 3,0 0,40 m 3,0 0,-40 m 3,0 0,40 m 3,0 0,-40 m 3,0 0,40 m 3,0 0,-40 m 3,0 0,40 m 3,0 0,-40 m 3,0 0,40 m 3,0 0,-40 m 3,0 0,40"
           style="fill:none;stroke:#000000;stroke-width:1"
           inkscape:connector-curvature="0" />
      </g>
      <g
         style="display:inline"
         id="g7424"
         transform="translate(-680,100)">
        <path
           inkscape:connector-curvature="0"
           id="path7426"
           d="m 1520,540 0,40 160,0 0,-40 z"
           style="fill:none;stroke:#000000;stroke-width:1px;stroke-linecap:butt;stroke-linejoin:miter;stroke-opacity:1" />
        <path
           id="path7428"
           d="m 1521.5887,540 0,40 m 3,0 0,-40 m 3,0 0,40 m 3,0 0,-40 m 3,0 0,40 m 3,0 0,-40 m 3,0 0,40 m 3,0 0,-40 m 3,0 0,40 m 3,0 0,-40 m 3,0 0,40 m 3,0 0,-40 m 3,0 0,40 m 3,0 0,-40 m 3,0 0,40 m 3,0 0,-40 m 3,0 0,40 m 3,0 0,-40 m 3,0 0,40 m 3,0 0,-40 m 3,0 0,40 m 3,0 0,-40 m 3,0 0,40 m 3,0 0,-40 m 3,0 0,40 m 3,0 0,-40 m 3,0 0,40 m 3,0 0,-40 m 3,0 0,40 m 3,0 0,-40 m 3,0 0,40 m 3,0 0,-40 m 3,0 0,40 m 3,0 0,-40 m 3,0 0,40 m 3,0 0,-40 m 3,0 0,40 m 3,0 0,-40 m 3,0 0,40 m 3,0 0,-40 m 3,0 0,40 m 3,0 0,-40 m 3,0 0,40 m 3,0 0,-40 m 3,0 0,40 m 3,0 0,-40 m 3,0 0,40 m 3,0 0,-40 m 3,0 0,40 m 3,0 0,-40 m 3,0 0,40 m 3,0 0,-40 m 3,0 0,40"
           style="fill:none;stroke:#000000;stroke-width:1"
           inkscape:connector-curvature="0" />
      </g>
      <g
         style="display:inline"
         id="g7430"
         transform="translate(-680,100)">
        <path
           inkscape:connector-curvature="0"
           id="path7432"
           d="m 1680,500 0,40 80,0 0,-40 z"
           style="fill:none;stroke:#000000;stroke-width:1px;stroke-linecap:butt;stroke-linejoin:miter;stroke-opacity:1" />
        <path
           id="path7434"
           d="m 1680.5887,500 0,40 m 3,0 0,-40 m 3,0 0,40 m 3,0 0,-40 m 3,0 0,40 m 3,0 0,-40 m 3,0 0,40 m 3,0 0,-40 m 3,0 0,40 m 3,0 0,-40 m 3,0 0,40 m 3,0 0,-40 m 3,0 0,40 m 3,0 0,-40 m 3,0 0,40 m 3,0 0,-40 m 3,0 0,40 m 3,0 0,-40 m 3,0 0,40 m 3,0 0,-40 m 3,0 0,40 m 3,0 0,-40 m 3,0 0,40 m 3,0 0,-40 m 3,0 0,40 m 3,0 0,-40 m 3,0 0,40"
           style="fill:none;stroke:#000000;stroke-width:1"
           inkscape:connector-curvature="0" />
      </g>
      <g
         style="display:inline"
         id="g7436"
         transform="translate(-680,100)">
        <path
           inkscape:connector-curvature="0"
           id="path7438"
           d="m 1800,420 40,0 0,-120 -40,0 z"
           style="fill:none;stroke:#000000;stroke-width:1px;stroke-linecap:butt;stroke-linejoin:miter;stroke-opacity:1" />
        <path
           id="path7440"
           d="m 1800.5887,300 0,120 m 3,0 0,-120 m 3,0 0,120 m 3,0 0,-120 m 3,0 0,120 m 3,0 0,-120 m 3,0 0,120 m 3,0 0,-120 m 3,0 0,120 m 3,0 0,-120 m 3,0 0,120 m 3,0 0,-120 m 3,0 0,120 m 3,0 0,-120"
           style="fill:none;stroke:#000000;stroke-width:1"
           inkscape:connector-curvature="0" />
      </g>
      <g
         style="display:inline"
         id="g7442"
         transform="translate(-680,100)">
        <path
           inkscape:connector-curvature="0"
           id="path7444"
           d="m 1400,300 -40,0 0,120 40,0 z"
           style="fill:none;stroke:#000000;stroke-width:1px;stroke-linecap:butt;stroke-linejoin:miter;stroke-opacity:1" />
        <path
           id="path7446"
           d="m 1362.5887,300 0,120 m 3,0 0,-120 m 3,0 0,120 m 3,0 0,-120 m 3,0 0,120 m 3,0 0,-120 m 3,0 0,120 m 3,0 0,-120 m 3,0 0,120 m 3,0 0,-120 m 3,0 0,120 m 3,0 0,-120 m 3,0 0,120"
           style="fill:none;stroke:#000000;stroke-width:1"
           inkscape:connector-curvature="0" />
      </g>
      <g
         style="display:inline"
         id="g7448"
         transform="translate(-680,100)">
        <path
           inkscape:connector-curvature="0"
           id="path7450"
           d="m 1480,100 0,40 80,0 0,-40 z"
           style="fill:none;stroke:#000000;stroke-width:1px;stroke-linecap:butt;stroke-linejoin:miter;stroke-opacity:1" />
        <path
           id="path7452"
           d="m 1482.5887,100 0,40 m 3,0 0,-40 m 3,0 0,40 m 3,0 0,-40 m 3,0 0,40 m 3,0 0,-40 m 3,0 0,40 m 3,0 0,-40 m 3,0 0,40 m 3,0 0,-40 m 3,0 0,40 m 3,0 0,-40 m 3,0 0,40 m 3,0 0,-40 m 3,0 0,40 m 3,0 0,-40 m 3,0 0,40 m 3,0 0,-40 m 3,0 0,40 m 3,0 0,-40 m 3,0 0,40 m 3,0 0,-40 m 3,0 0,40 m 3,0 0,-40 m 3,0 0,40 m 3,0 0,-40"
           style="fill:none;stroke:#000000;stroke-width:1"
           inkscape:connector-curvature="0" />
      </g>
      <g
         style="display:inline"
         id="g7454"
         transform="translate(-680,100)">
        <path
           inkscape:connector-curvature="0"
           id="path7456"
           d="m 1720,140 -80,0 0,-40 80,0 z"
           style="fill:none;stroke:#000000;stroke-width:1px;stroke-linecap:butt;stroke-linejoin:miter;stroke-opacity:1" />
        <path
           id="path7458"
           d="m 1641.5887,100 0,40 m 3,0 0,-40 m 3,0 0,40 m 3,0 0,-40 m 3,0 0,40 m 3,0 0,-40 m 3,0 0,40 m 3,0 0,-40 m 3,0 0,40 m 3,0 0,-40 m 3,0 0,40 m 3,0 0,-40 m 3,0 0,40 m 3,0 0,-40 m 3,0 0,40 m 3,0 0,-40 m 3,0 0,40 m 3,0 0,-40 m 3,0 0,40 m 3,0 0,-40 m 3,0 0,40 m 3,0 0,-40 m 3,0 0,40 m 3,0 0,-40 m 3,0 0,40 m 3,0 0,-40 m 3,0 0,40"
           style="fill:none;stroke:#000000;stroke-width:1"
           inkscape:connector-curvature="0" />
      </g>
    </g>
  </g>
  <g
     style="display:inline"
     inkscape:groupmode="layer"
     id="layer2"
     inkscape:label="1 pen">
    <g
       transform="matrix(1.3846154,0,0,0.83076924,-1843.077,128.43077)"
       id="g1254"
       style="display:inline">
      <path
         style="fill:none;stroke:#000000;stroke-width:1px;stroke-linecap:butt;stroke-linejoin:miter;stroke-opacity:1"
         d="m 1560,100 0,40 -80,0 0,80 -40,0 0,80 -40,0 0,80 40,0 0,80 80,0 0,40 80,0 0,-40 40,0 0,-40 40,0 0,-240 -40,0 0,-40 -40,0 0,-40 z"
         id="path1206"
         inkscape:connector-curvature="0" />
      <path
         inkscape:connector-curvature="0"
         style="fill:none;stroke:#000000;stroke-width:1"
         d="m 1400.8689,300 0,80 m 3,0 0,-80 m 3,0 0,80 m 3,0 0,-80 m 3,0 0,80 m 3,0 0,-80 m 3,0 0,80 m 3,0 0,-80 m 3,0 0,80 m 3,0 0,-80 m 3,0 0,80 m 3,0 0,-80 m 3,0 0,80 m 3,0 0,-80 m 3,-80 0,240 m 3,0 0,-240 m 3,0 0,240 m 3,0 0,-240 m 3,0 0,240 m 3,0 0,-240 m 3,0 0,240 m 3,0 0,-240 m 3,0 0,240 m 3,0 0,-240 m 3,0 0,240 m 3,0 0,-240 m 3,0 0,240 m 3,0 0,-320 m 3,0 0,320 m 3,0 0,-320 m 3,0 0,320 m 3,0 0,-320 m 3,0 0,320 m 3,0 0,-320 m 3,0 0,320 m 3,0 0,-320 m 3,0 0,320 m 3,0 0,-320 m 3,0 0,320 m 3,0 0,-320 m 3,0 0,360 m 3,0 0,-360 m 3,0 0,360 m 3,0 0,-360 m 3,0 0,360 m 3,0 0,-360 m 3,0 0,360 m 3,0 0,-360 m 3,0 0,360 m 3,0 0,-360 m 3,0 0,360 m 3,0 0,-360 m 3,0 0,360 m 3,0 0,-360 m 3,-40 0,400 m 3,0 0,-400 m 3,0 0,400 m 3,0 0,-400 m 3,0 0,400 m 3,0 0,-400 m 3,0 0,400 m 3,0 0,-400 m 3,0 0,400 m 3,0 0,-400 m 3,0 0,400 m 3,0 0,-400 m 3,0 0,400 m 3,-40 0,-320 m 3,0 0,320 m 3,0 0,-320 m 3,0 0,320 m 3,0 0,-320 m 3,0 0,320 m 3,0 0,-320 m 3,0 0,320 m 3,0 0,-320 m 3,0 0,320 m 3,0 0,-320 m 3,0 0,320 m 3,0 0,-320 m 3,40 0,240 m 3,0 0,-240 m 3,0 0,240 m 3,0 0,-240 m 3,0 0,240 m 3,0 0,-240 m 3,0 0,240 m 3,0 0,-240 m 3,0 0,240 m 3,0 0,-240 m 3,0 0,240 m 3,0 0,-240 m 3,0 0,240 m 3,0 0,-240"
         id="path1257" />
    </g>
    <g
       style="display:inline"
       id="g7242"
       transform="matrix(1.3846154,0,0,0.83076924,-1128.077,131.43077)">
      <path
         inkscape:connector-curvature="0"
         id="path7244"
         d="m 1560,100 0,40 -80,0 0,80 -40,0 0,80 -40,0 0,80 40,0 0,80 80,0 0,40 80,0 0,-40 40,0 0,-40 40,0 0,-240 -40,0 0,-40 -40,0 0,-40 z"
         style="fill:none;stroke:#000000;stroke-width:1px;stroke-linecap:butt;stroke-linejoin:miter;stroke-opacity:1" />
      <path
         id="path7246"
         d="m 1400.8689,300 0,80 m 3,0 0,-80 m 3,0 0,80 m 3,0 0,-80 m 3,0 0,80 m 3,0 0,-80 m 3,0 0,80 m 3,0 0,-80 m 3,0 0,80 m 3,0 0,-80 m 3,0 0,80 m 3,0 0,-80 m 3,0 0,80 m 3,0 0,-80 m 3,-80 0,240 m 3,0 0,-240 m 3,0 0,240 m 3,0 0,-240 m 3,0 0,240 m 3,0 0,-240 m 3,0 0,240 m 3,0 0,-240 m 3,0 0,240 m 3,0 0,-240 m 3,0 0,240 m 3,0 0,-240 m 3,0 0,240 m 3,0 0,-320 m 3,0 0,320 m 3,0 0,-320 m 3,0 0,320 m 3,0 0,-320 m 3,0 0,320 m 3,0 0,-320 m 3,0 0,320 m 3,0 0,-320 m 3,0 0,320 m 3,0 0,-320 m 3,0 0,320 m 3,0 0,-320 m 3,0 0,360 m 3,0 0,-360 m 3,0 0,360 m 3,0 0,-360 m 3,0 0,360 m 3,0 0,-360 m 3,0 0,360 m 3,0 0,-360 m 3,0 0,360 m 3,0 0,-360 m 3,0 0,360 m 3,0 0,-360 m 3,0 0,360 m 3,0 0,-360 m 3,-40 0,400 m 3,0 0,-400 m 3,0 0,400 m 3,0 0,-400 m 3,0 0,400 m 3,0 0,-400 m 3,0 0,400 m 3,0 0,-400 m 3,0 0,400 m 3,0 0,-400 m 3,0 0,400 m 3,0 0,-400 m 3,0 0,400 m 3,-40 0,-320 m 3,0 0,320 m 3,0 0,-320 m 3,0 0,320 m 3,0 0,-320 m 3,0 0,320 m 3,0 0,-320 m 3,0 0,320 m 3,0 0,-320 m 3,0 0,320 m 3,0 0,-320 m 3,0 0,320 m 3,0 0,-320 m 3,40 0,240 m 3,0 0,-240 m 3,0 0,240 m 3,0 0,-240 m 3,0 0,240 m 3,0 0,-240 m 3,0 0,240 m 3,0 0,-240 m 3,0 0,240 m 3,0 0,-240 m 3,0 0,240 m 3,0 0,-240 m 3,0 0,240 m 3,0 0,-240"
         style="fill:none;stroke:#000000;stroke-width:1"
         inkscape:connector-curvature="0" />
    </g>
    <g
       style="display:inline"
       id="g7460"
       transform="matrix(1.3846154,0,0,0.83076924,-243.07697,128.43077)">
      <path
         inkscape:connector-curvature="0"
         id="path7462"
         d="m 1560,100 0,40 -80,0 0,80 -40,0 0,80 -40,0 0,80 40,0 0,80 80,0 0,40 80,0 0,-40 40,0 0,-40 40,0 0,-240 -40,0 0,-40 -40,0 0,-40 z"
         style="fill:none;stroke:#000000;stroke-width:1px;stroke-linecap:butt;stroke-linejoin:miter;stroke-opacity:1" />
      <path
         id="path7464"
         d="m 1400.8689,300 0,80 m 3,0 0,-80 m 3,0 0,80 m 3,0 0,-80 m 3,0 0,80 m 3,0 0,-80 m 3,0 0,80 m 3,0 0,-80 m 3,0 0,80 m 3,0 0,-80 m 3,0 0,80 m 3,0 0,-80 m 3,0 0,80 m 3,0 0,-80 m 3,-80 0,240 m 3,0 0,-240 m 3,0 0,240 m 3,0 0,-240 m 3,0 0,240 m 3,0 0,-240 m 3,0 0,240 m 3,0 0,-240 m 3,0 0,240 m 3,0 0,-240 m 3,0 0,240 m 3,0 0,-240 m 3,0 0,240 m 3,0 0,-320 m 3,0 0,320 m 3,0 0,-320 m 3,0 0,320 m 3,0 0,-320 m 3,0 0,320 m 3,0 0,-320 m 3,0 0,320 m 3,0 0,-320 m 3,0 0,320 m 3,0 0,-320 m 3,0 0,320 m 3,0 0,-320 m 3,0 0,360 m 3,0 0,-360 m 3,0 0,360 m 3,0 0,-360 m 3,0 0,360 m 3,0 0,-360 m 3,0 0,360 m 3,0 0,-360 m 3,0 0,360 m 3,0 0,-360 m 3,0 0,360 m 3,0 0,-360 m 3,0 0,360 m 3,0 0,-360 m 3,-40 0,400 m 3,0 0,-400 m 3,0 0,400 m 3,0 0,-400 m 3,0 0,400 m 3,0 0,-400 m 3,0 0,400 m 3,0 0,-400 m 3,0 0,400 m 3,0 0,-400 m 3,0 0,400 m 3,0 0,-400 m 3,0 0,400 m 3,-40 0,-320 m 3,0 0,320 m 3,0 0,-320 m 3,0 0,320 m 3,0 0,-320 m 3,0 0,320 m 3,0 0,-320 m 3,0 0,320 m 3,0 0,-320 m 3,0 0,320 m 3,0 0,-320 m 3,0 0,320 m 3,0 0,-320 m 3,40 0,240 m 3,0 0,-240 m 3,0 0,240 m 3,0 0,-240 m 3,0 0,240 m 3,0 0,-240 m 3,0 0,240 m 3,0 0,-240 m 3,0 0,240 m 3,0 0,-240 m 3,0 0,240 m 3,0 0,-240 m 3,0 0,240 m 3,0 0,-240"
         style="fill:none;stroke:#000000;stroke-width:1"
         inkscape:connector-curvature="0" />
    </g>
    <g
       transform="matrix(1.3846154,0,0,0.83076924,471.92303,131.43077)"
       id="g7466"
       style="display:inline">
      <path
         style="fill:none;stroke:#000000;stroke-width:1px;stroke-linecap:butt;stroke-linejoin:miter;stroke-opacity:1"
         d="m 1560,100 0,40 -80,0 0,80 -40,0 0,80 -40,0 0,80 40,0 0,80 80,0 0,40 80,0 0,-40 40,0 0,-40 40,0 0,-240 -40,0 0,-40 -40,0 0,-40 z"
         id="path7468"
         inkscape:connector-curvature="0" />
      <path
         inkscape:connector-curvature="0"
         style="fill:none;stroke:#000000;stroke-width:1"
         d="m 1400.8689,300 0,80 m 3,0 0,-80 m 3,0 0,80 m 3,0 0,-80 m 3,0 0,80 m 3,0 0,-80 m 3,0 0,80 m 3,0 0,-80 m 3,0 0,80 m 3,0 0,-80 m 3,0 0,80 m 3,0 0,-80 m 3,0 0,80 m 3,0 0,-80 m 3,-80 0,240 m 3,0 0,-240 m 3,0 0,240 m 3,0 0,-240 m 3,0 0,240 m 3,0 0,-240 m 3,0 0,240 m 3,0 0,-240 m 3,0 0,240 m 3,0 0,-240 m 3,0 0,240 m 3,0 0,-240 m 3,0 0,240 m 3,0 0,-320 m 3,0 0,320 m 3,0 0,-320 m 3,0 0,320 m 3,0 0,-320 m 3,0 0,320 m 3,0 0,-320 m 3,0 0,320 m 3,0 0,-320 m 3,0 0,320 m 3,0 0,-320 m 3,0 0,320 m 3,0 0,-320 m 3,0 0,360 m 3,0 0,-360 m 3,0 0,360 m 3,0 0,-360 m 3,0 0,360 m 3,0 0,-360 m 3,0 0,360 m 3,0 0,-360 m 3,0 0,360 m 3,0 0,-360 m 3,0 0,360 m 3,0 0,-360 m 3,0 0,360 m 3,0 0,-360 m 3,-40 0,400 m 3,0 0,-400 m 3,0 0,400 m 3,0 0,-400 m 3,0 0,400 m 3,0 0,-400 m 3,0 0,400 m 3,0 0,-400 m 3,0 0,400 m 3,0 0,-400 m 3,0 0,400 m 3,0 0,-400 m 3,0 0,400 m 3,-40 0,-320 m 3,0 0,320 m 3,0 0,-320 m 3,0 0,320 m 3,0 0,-320 m 3,0 0,320 m 3,0 0,-320 m 3,0 0,320 m 3,0 0,-320 m 3,0 0,320 m 3,0 0,-320 m 3,0 0,320 m 3,0 0,-320 m 3,40 0,240 m 3,0 0,-240 m 3,0 0,240 m 3,0 0,-240 m 3,0 0,240 m 3,0 0,-240 m 3,0 0,240 m 3,0 0,-240 m 3,0 0,240 m 3,0 0,-240 m 3,0 0,240 m 3,0 0,-240 m 3,0 0,240 m 3,0 0,-240"
         id="path7470" />
    </g>
  </g>
  <eggbot
     serialport="/dev/cu.usbmodem1a21"
     layer="0"
     node="0"
     lastpath="0"
     lastpathnc="0"
     totaldeltax="0"
     totaldeltay="0"
     id="eggbot15934" />
</svg>
